<svg xmlns="http://www.w3.org/2000/svg" xmlns:xlink="http://www.w3.org/1999/xlink" viewBox="0 0 512 512"><defs><style>.cls-1{fill:none;}.cls-2{fill:#87e8d8;}.cls-3{fill:#e3e7f2;}.cls-4{fill:#fff;}.cls-5{clip-path:url(#clip-path);}.cls-6{fill:#f9f9f9;}.cls-7{fill:#3db2a3;}</style><clipPath id="clip-path"><circle class="cls-1" cx="256" cy="264" r="240"/></clipPath></defs><title>Ресурс 1</title><g id="Слой_2" data-name="Слой 2"><g id="Capa_1" data-name="Capa 1"><circle class="cls-2" cx="256" cy="256" r="246.15"/><ellipse class="cls-3" cx="256" cy="256" rx="216.61" ry="246.15"/><path class="cls-4" d="M39.38,256c0-135.95,97-246.15,216.62-246.15C120.05,9.85,9.85,120.05,9.85,256S120.05,502.15,256,502.15C136.37,502.15,39.38,392,39.38,256Z"/><g class="cls-5"><path class="cls-2" d="M416.69,442.08a58.6,58.6,0,0,0-32.38-52.41l-69.77-34.88A26.6,26.6,0,0,1,299.83,331V303.61q3.51-4.08,6.6-8.49a160.64,160.64,0,0,0,21.68-43.71,21.9,21.9,0,0,0,15.54-20.84V201.35a21.77,21.77,0,0,0-7.3-16.19V142.91S345,77.17,256,77.17s-80.35,65.74-80.35,65.74v42.25a21.77,21.77,0,0,0-7.3,16.19v29.22A21.9,21.9,0,0,0,178.45,249a144.9,144.9,0,0,0,26.42,54.66v26.7A26.6,26.6,0,0,1,191,353.67l-65.16,35.54a58.6,58.6,0,0,0-30.53,51.44V464.3c0,20.17,71.94,36.53,160.69,36.53s160.69-16.36,160.69-36.53Z"/><path class="cls-6" d="M394.78,442.08a58.62,58.62,0,0,0-32.38-52.41l-69.78-34.88A26.62,26.62,0,0,1,277.91,331V303.61a103.72,103.72,0,0,0,6.6-8.49,160.38,160.38,0,0,0,21.69-43.71,21.9,21.9,0,0,0,15.54-20.84V201.35a21.78,21.78,0,0,0-7.31-16.19V142.91s8.68-65.74-80.34-65.74c-49.31,0-58.44,65.74-58.44,65.74v42.25a21.77,21.77,0,0,0-7.3,16.19v29.22A21.9,21.9,0,0,0,178.45,249a144.9,144.9,0,0,0,26.42,54.66v26.7A26.6,26.6,0,0,1,191,353.67l-50.55,35.54C121.62,399.48,88,419.21,88,440.65V464.3c0,20.17,154.73,36.53,146.09,36.53,88.75,0,160.69-16.36,160.69-36.53Z"/><path class="cls-7" d="M256,508.13c-58.11,0-168-9.16-168-43.83V440.65a65.85,65.85,0,0,1,34.34-57.85l65.16-35.54a19.31,19.31,0,0,0,10.07-16.95V306.14A153.25,153.25,0,0,1,172,253.28,29.05,29.05,0,0,1,161,230.57V201.35a29.16,29.16,0,0,1,7.31-19.18V143.32a65.48,65.48,0,0,1,15.28-47.66C198.63,78.54,223,69.87,256,69.87s57.37,8.67,72.37,25.79a65.48,65.48,0,0,1,15.28,47.66v38.85A29.16,29.16,0,0,1,351,201.35v29.22A29,29,0,0,1,334,257a167.08,167.08,0,0,1-21.58,42.35c-1.82,2.58-3.58,4.9-5.25,7V331a19.17,19.17,0,0,0,10.67,17.26l69.78,34.89A65.55,65.55,0,0,1,424,442.08V464.3C424,499,314.11,508.13,256,508.13Zm0-423.65c-28.63,0-49.28,7-61.38,20.81A50.66,50.66,0,0,0,182.89,142a7.45,7.45,0,0,1,.07.95v42.25a7.33,7.33,0,0,1-2.41,5.42,14.41,14.41,0,0,0-4.9,10.77v29.22a14.58,14.58,0,0,0,6.76,12.24,7.32,7.32,0,0,1,3.16,4.5,137.84,137.84,0,0,0,24.9,51.61,7.31,7.31,0,0,1,1.7,4.69v26.7a33.89,33.89,0,0,1-17.67,29.77l-65.16,35.55a51.22,51.22,0,0,0-26.73,45V464.3c0,9.92,54.14,29.22,153.39,29.22s153.39-19.3,153.39-29.22V442.08A51,51,0,0,0,381,396.21l-69.77-34.89A33.74,33.74,0,0,1,292.52,331V303.61a7.29,7.29,0,0,1,1.82-4.82,99.37,99.37,0,0,0,6.12-7.88,153,153,0,0,0,20.7-41.73,7.29,7.29,0,0,1,4.8-4.74,14.54,14.54,0,0,0,10.39-13.87V201.35a14.41,14.41,0,0,0-4.9-10.77,7.3,7.3,0,0,1-2.41-5.42V142.91a7.46,7.46,0,0,1,.06-.95,51.34,51.34,0,0,0-11.85-36.82C305.13,91.43,284.52,84.48,256,84.48Z"/></g><path class="cls-7" d="M256,512C114.61,512,0,397.39,0,256S114.61,0,256,0,512,114.61,512,256C511.84,397.32,397.32,511.84,256,512Zm0-492.31C125.49,19.69,19.69,125.49,19.69,256S125.49,492.31,256,492.31,492.31,386.51,492.31,256,386.45,19.84,256,19.69Z"/></g></g></svg>