<svg id="Capa_1" data-name="Capa 1" xmlns="http://www.w3.org/2000/svg" viewBox="0 0 512 512"><defs><style>.cls-1{fill:#87e8d8;}.cls-2{fill:#fff;}.cls-3{fill:#e3e7f2;}.cls-4{fill:#3db2a3;}</style></defs><title>icon 4</title><rect class="cls-1" x="66.37" y="350.82" width="56.89" height="113.78"/><rect class="cls-2" x="28.44" y="350.82" width="56.89" height="113.78"/><rect class="cls-3" x="56.89" y="350.82" width="37.93" height="113.78"/><rect class="cls-1" x="208.59" y="159" width="94.82" height="197"/><rect class="cls-3" x="208.59" y="159" width="66.37" height="197"/><rect class="cls-1" x="388.74" y="47.41" width="94.82" height="113.78"/><rect class="cls-3" x="388.74" y="47.41" width="66.37" height="113.78"/><path class="cls-4" d="M75.85,360.3a9.48,9.48,0,0,1-9.48-9.48V9.48a9.48,9.48,0,0,1,19,0V350.81a9.48,9.48,0,0,1-9.48,9.48Z"/><path class="cls-4" d="M123.26,474.07H28.44A9.48,9.48,0,0,1,19,464.59V350.82a9.48,9.48,0,0,1,9.48-9.48h94.82a9.48,9.48,0,0,1,9.48,9.48V464.59a9.48,9.48,0,0,1-9.48,9.48Zm-85.33-19h75.85V360.3H37.93Z"/><path class="cls-4" d="M75.85,512a9.48,9.48,0,0,1-9.48-9.48V464.59a9.48,9.48,0,0,1,19,0v37.93A9.48,9.48,0,0,1,75.85,512Z"/><path class="cls-4" d="M256,168.59a9.48,9.48,0,0,1-9.48-9.48V9.48a9.48,9.48,0,1,1,19,0V159.11a9.48,9.48,0,0,1-9.48,9.48Z"/><path class="cls-4" d="M303.41,378H208.59c-2.51,0-4.93-1.76-6.71-4.89a24.53,24.53,0,0,1-2.78-11.82V160.71a24.53,24.53,0,0,1,2.78-11.82c1.78-3.13,4.19-4.9,6.71-4.89h94.82c2.52,0,4.93,1.76,6.7,4.89a24.53,24.53,0,0,1,2.78,11.82V361.29a24.53,24.53,0,0,1-2.78,11.82c-1.78,3.13-4.19,4.9-6.7,4.89Zm-85.33-33.43h75.85V177.43H218.07Z"/><path class="cls-4" d="M256,512a9.48,9.48,0,0,1-9.48-9.48V362.89a9.48,9.48,0,0,1,19,0V502.52A9.48,9.48,0,0,1,256,512Z"/><path class="cls-4" d="M436.15,512a9.48,9.48,0,0,1-9.48-9.48V161.18a9.48,9.48,0,0,1,19,0V502.52a9.48,9.48,0,0,1-9.48,9.48Z"/><path class="cls-4" d="M483.56,170.67H388.74a9.48,9.48,0,0,1-9.48-9.48V47.41a9.48,9.48,0,0,1,9.48-9.48h94.82A9.48,9.48,0,0,1,493,47.41V161.18a9.48,9.48,0,0,1-9.48,9.48Zm-85.33-19h75.85V56.89H398.22Z"/><path class="cls-4" d="M436.15,56.89a9.48,9.48,0,0,1-9.48-9.48V9.48a9.48,9.48,0,0,1,19,0V47.41a9.48,9.48,0,0,1-9.48,9.48Z"/></svg>