<svg id="Capa_1" data-name="Capa 1" xmlns="http://www.w3.org/2000/svg" viewBox="0 0 512 512"><defs><style>.cls-1{fill:#87e8d8;}.cls-2{fill:#e3e7f2;}.cls-3{fill:#fff;}.cls-4{fill:#3db2a3;}</style></defs><title>icon 2</title><circle class="cls-1" cx="269.96" cy="232.73" r="65.16"/><ellipse class="cls-2" cx="256" cy="232.73" rx="51.2" ry="65.16"/><path class="cls-3" d="M270,297.89a65.11,65.11,0,0,0,7.82-.51c-25.37-3.87-45.06-31.31-45.06-64.65s19.68-60.78,45.06-64.65A65.14,65.14,0,1,0,270,297.89Z"/><circle class="cls-1" cx="456.14" cy="55.85" r="46.55"/><circle class="cls-1" cx="269.96" cy="456.14" r="46.55"/><ellipse class="cls-2" cx="442.18" cy="55.85" rx="32.58" ry="46.54"/><ellipse class="cls-2" cx="256" cy="456.14" rx="32.58" ry="46.55"/><circle class="cls-1" cx="55.85" cy="437.53" r="46.55"/><circle class="cls-2" cx="121.02" cy="83.78" r="27.93"/><ellipse class="cls-2" cx="41.89" cy="437.53" rx="32.58" ry="46.55"/><path class="cls-3" d="M55.85,484.07a46.6,46.6,0,0,0,8.21-.83c-15.24-3.89-26.83-22.83-26.83-45.72s11.59-41.83,26.83-45.72a46.5,46.5,0,1,0-8.21,92.26Z"/><path class="cls-3" d="M271.06,502.69a46.6,46.6,0,0,0,8.21-.83C264,498,252.44,479,252.44,456.15s11.59-41.83,26.83-45.72a46.5,46.5,0,1,0-8.21,92.26Z"/><path class="cls-3" d="M457.24,102.4a46.6,46.6,0,0,0,8.21-.83c-15.24-3.89-26.83-22.82-26.83-45.72S450.21,14,465.45,10.14a46.5,46.5,0,1,0-8.21,92.26Z"/><circle class="cls-2" cx="418.91" cy="381.67" r="27.93"/><path class="cls-4" d="M270,307.2a74.47,74.47,0,1,1,74.47-74.47A74.47,74.47,0,0,1,270,307.2Zm0-130.33a55.86,55.86,0,1,0,55.86,55.86A55.85,55.85,0,0,0,270,176.87Z"/><path class="cls-4" d="M456.14,111.71A55.85,55.85,0,1,1,512,55.85a55.85,55.85,0,0,1-55.86,55.85Zm0-93.09a37.24,37.24,0,1,0,37.24,37.24A37.24,37.24,0,0,0,456.14,18.62Z"/><path class="cls-4" d="M270,512a55.86,55.86,0,1,1,55.86-55.86A55.85,55.85,0,0,1,270,512Zm0-93.09a37.24,37.24,0,1,0,37.24,37.24A37.24,37.24,0,0,0,270,418.91Z"/><path class="cls-4" d="M55.85,493.38a55.85,55.85,0,1,1,55.85-55.85,55.85,55.85,0,0,1-55.85,55.85Zm0-93.09a37.24,37.24,0,1,0,37.24,37.24,37.24,37.24,0,0,0-37.24-37.24Z"/><path class="cls-4" d="M121,121a37.24,37.24,0,1,1,37.24-37.24A37.24,37.24,0,0,1,121,121Zm0-55.85a18.62,18.62,0,1,0,18.62,18.62A18.62,18.62,0,0,0,121,65.16Z"/><path class="cls-4" d="M418.91,418.91a37.24,37.24,0,1,1,37.24-37.24,37.24,37.24,0,0,1-37.24,37.24Zm0-55.85a18.62,18.62,0,1,0,18.62,18.62,18.62,18.62,0,0,0-18.62-18.62Z"/><path class="cls-4" d="M270,418.91a9.31,9.31,0,0,1-9.31-9.31V297.89a9.31,9.31,0,1,1,18.62,0V409.6a9.31,9.31,0,0,1-9.31,9.31Z"/><path class="cls-4" d="M316.51,195.49a9.31,9.31,0,0,1-6.58-15.89L412.33,77.2a9.31,9.31,0,1,1,13.16,13.16l-102.4,102.4a9.28,9.28,0,0,1-6.58,2.73Z"/><path class="cls-4" d="M93.09,418.91A9.31,9.31,0,0,1,86.51,403L216.84,272.69A9.31,9.31,0,0,1,230,285.85L99.67,416.18a9.28,9.28,0,0,1-6.58,2.73Z"/><path class="cls-4" d="M223.42,195.49a9.28,9.28,0,0,1-6.58-2.73L133.05,109c-3.58-3.64-1.55-2.49,2.06-6.1s7.46-10.64,11.1-7.06L230,179.6a9.31,9.31,0,0,1-6.58,15.89Z"/><path class="cls-4" d="M397.29,370.36c-2.47,0-1.84,1-3.58-.73l-83.78-83.78a9.31,9.31,0,0,1,13.16-13.16l83.78,83.78c2.66,2.66.46,4.67-1,8.14A9.31,9.31,0,0,1,397.29,370.36Z"/></svg>