<svg id="bold" xmlns="http://www.w3.org/2000/svg" viewBox="0 0 512 512"><defs><style>.cls-1{fill:#38b2a3;}</style></defs><title>company</title><path class="cls-1" d="M278,39.89,43.52,4.27a37.81,37.81,0,0,0-30.29,8.32A38.15,38.15,0,0,0,0,41.17V490.67A21.4,21.4,0,0,0,21.33,512H90.67V400A37.24,37.24,0,0,1,128,362.67h53.33A37.24,37.24,0,0,1,218.67,400V512h90.67V76.8A37.36,37.36,0,0,0,278,39.89ZM117.33,314.67h-32a16,16,0,1,1,0-32h32a16,16,0,0,1,0,32Zm0-64h-32a16,16,0,1,1,0-32h32a16,16,0,0,1,0,32Zm0-64h-32a16,16,0,1,1,0-32h32a16,16,0,0,1,0,32Zm0-64h-32a16,16,0,1,1,0-32h32a16,16,0,0,1,0,32ZM224,314.67H192a16,16,0,1,1,0-32h32a16,16,0,1,1,0,32Zm0-64H192a16,16,0,1,1,0-32h32a16,16,0,1,1,0,32Zm0-64H192a16,16,0,1,1,0-32h32a16,16,0,1,1,0,32Zm0-64H192a16,16,0,1,1,0-32h32a16,16,0,1,1,0,32Z"/><path class="cls-1" d="M482.56,231.3,330.67,199.49V512h144A37.37,37.37,0,0,0,512,474.67V267.78A37.15,37.15,0,0,0,482.56,231.3ZM432,448H400a16,16,0,0,1,0-32h32a16,16,0,0,1,0,32Zm0-64H400a16,16,0,1,1,0-32h32a16,16,0,1,1,0,32Zm0-64H400a16,16,0,1,1,0-32h32a16,16,0,1,1,0,32Z"/></svg>