<svg id="Capa_1" data-name="Capa 1" xmlns="http://www.w3.org/2000/svg" viewBox="0 0 508 508"><defs><style>.cls-1{fill:#38b2a3;}</style></defs><title>creditcard</title><path class="cls-1" d="M352.3,221.15a40.42,40.42,0,0,0-24.6,8.4,40.3,40.3,0,0,0-24.5-8.4,41,41,0,1,0,0,82,40.6,40.6,0,0,0,24.6-8.4,40.64,40.64,0,0,0,24.6,8.4,41,41,0,1,0-.1-82Zm-49.1,65.6a24.6,24.6,0,1,1,24.6-24.6A24.58,24.58,0,0,1,303.2,286.75Zm49.1,0a23.69,23.69,0,0,1-13.7-4.3,40.21,40.21,0,0,0,0-40.6,23.69,23.69,0,0,1,13.7-4.3,24.6,24.6,0,1,1,0,49.2Z"/><rect class="cls-1" x="49.2" y="385.05" width="49.2" height="16.4"/><rect class="cls-1" x="139.3" y="385.05" width="49.2" height="16.4"/><rect class="cls-1" x="229.4" y="385.05" width="49.2" height="16.4"/><rect class="cls-1" x="319.5" y="385.05" width="49.2" height="16.4"/><rect class="cls-1" x="49.2" y="253.95" width="98.3" height="16.4"/><rect class="cls-1" x="49.2" y="319.45" width="213" height="16.4"/><path class="cls-1" d="M467,49.15H106.5a41.06,41.06,0,0,0-41,41v90.1H41a41.06,41.06,0,0,0-41,41v196.6a41.06,41.06,0,0,0,41,41H401.5a41.06,41.06,0,0,0,41-41v-90.1H467a41.06,41.06,0,0,0,41-41V90.05A41,41,0,0,0,467,49.15Zm-40.9,368.7a24.58,24.58,0,0,1-24.6,24.6H41a24.58,24.58,0,0,1-24.6-24.6V221.15A24.58,24.58,0,0,1,41,196.55H401.5a24.58,24.58,0,0,1,24.6,24.6Zm65.5-131.1a24.58,24.58,0,0,1-24.6,24.6H442.4v-90.1a41.06,41.06,0,0,0-41-41H81.9v-32.8H491.6Zm0-155.7H81.9v-16.4H491.6Zm0-32.8H81.9v-8.2a24.58,24.58,0,0,1,24.6-24.6H467a24.58,24.58,0,0,1,24.6,24.6Z"/></svg>