<svg id="Capa_1" data-name="Capa 1" xmlns="http://www.w3.org/2000/svg" viewBox="0 0 512 512"><defs><style>.cls-1{fill:#38b2a3;}</style></defs><title>gold</title><path class="cls-1" d="M329.93,191.43A15,15,0,0,0,316,182H196a15,15,0,0,0-13.93,9.43l-48,120A15,15,0,0,0,148,332H364a15,15,0,0,0,13.93-20.57Z"/><path class="cls-1" d="M196.95,371.43A15,15,0,0,0,183,362H63a15,15,0,0,0-13.93,9.43l-48,120A15,15,0,0,0,15,512H231a15,15,0,0,0,13.93-20.57Z"/><path class="cls-1" d="M462.91,371.43A15,15,0,0,0,449,362H329a15,15,0,0,0-13.93,9.43l-48,120A15,15,0,0,0,281,512H497a15,15,0,0,0,13.93-20.57Z"/><path class="cls-1" d="M134.95,172.16,65.08,102.29A15,15,0,0,1,86.29,81.08l69.87,69.87a15,15,0,0,1-21.21,21.21Z"/><path class="cls-1" d="M355.84,172.16a15,15,0,0,1,0-21.21l69.87-69.87a15,15,0,0,1,21.21,21.21L377,172.16a15,15,0,0,1-21.21,0Z"/><path class="cls-1" d="M186.22,142.74,156,69.87a15,15,0,1,1,27.72-11.48l30.18,72.87a15,15,0,0,1-27.72,11.48Z"/><path class="cls-1" d="M306.18,150.86a15,15,0,0,1-8.12-19.6l30.18-72.87A15,15,0,0,1,356,69.87l-30.18,72.87A15,15,0,0,1,306.18,150.86Z"/><path class="cls-1" d="M256,152a15,15,0,0,1-15-15V15a15,15,0,0,1,30,0V137A15,15,0,0,1,256,152Z"/></svg>