<svg id="Capa_1" data-name="Capa 1" xmlns="http://www.w3.org/2000/svg" viewBox="0 0 512 512"><defs><style>.cls-1{fill:#fff;}</style></defs><title>headset</title><path class="cls-1" d="M120,203H80.48C87.16,112,163.33,40,256,40A176.74,176.74,0,0,1,421.13,154.94a20,20,0,1,0,37.52-13.88A216,216,0,0,0,40,213.75,80,80,0,0,0,0,283v68a80.09,80.09,0,0,0,80,80h40a20,20,0,0,0,20-20V223A20,20,0,0,0,120,203ZM100,391H80a40,40,0,0,1-40-40V283a40,40,0,0,1,40-40h20Z"/><path class="cls-1" d="M432,203H392a20,20,0,0,0-20,20V432a20,20,0,0,1-20,20H291v.63a40,40,0,1,0,0,38.73V492h61a60.07,60.07,0,0,0,60-60v-1h20a80.09,80.09,0,0,0,80-80V283A80.09,80.09,0,0,0,432,203Zm40,148a40,40,0,0,1-40,40H412V243h20a40,40,0,0,1,40,40Z"/></svg>