<svg id="katman_1" data-name="katman 1" xmlns="http://www.w3.org/2000/svg" viewBox="0 0 148 31"><defs><style>.cls-1{fill:#1f3049;}.cls-2{fill:#3db2a3;}</style></defs><title>hizli logo</title><path class="cls-1" d="M15.75,5.63l5.66-.08c2.55.22,2.37,1.94,0,2.36C18,8.35,19.32,10,20.52,10a12.85,12.85,0,0,1,3.08,0c1.66.29.68,1.86-.62,2.18H7.78c-1.51,0-3.21-.38-4.32.11s-1.38,1.4.07,1.82c3.56,1,12.89-1.1,15.5.67-.08,2.22-.15,1.73-5.24,1.73-1.57,0-3.13-.33-4.1.11s-1.48,1.41,0,1.8c2.78.73,7.44-.47,10.39.13,2,.41,1.91,2.13.24,2.27-.66.06-1.7,0-3.31,0a16.64,16.64,0,0,0-3.21,0c-.76.19-2.21,1.82,0,2,1.11.11,2.2,0,3.26.16,1.63.29,1.59,1.71.06,2-1.79.41-3.62-.4-3,1.75,1.87.51,7.92.25,9.44.2l1.75-7.53,7.19-.19-1.64,7.85L38,27,43.11,3.82,36.2,3.76l-1.87,7.58-7.18.07,1.6-7.56H14.9c-1.65.32-1.33,1.65.87,1.8"/><path class="cls-1" d="M55.54,7.34,55.17,9h9.59L53.52,20.42c-2.48,2.24-2.26,3.47-3.17,6.71L69,27.22l1.21-5.51h-10L72,9.78c1.83-1.59,2-2.52,2.48-5.94H56.27Z"/><polygon class="cls-1" points="71.96 27.15 88.24 27.26 89.46 21.59 79.56 21.48 83.49 3.8 77.87 3.74 71.96 27.15"/><polygon class="cls-1" points="91.03 27.04 96.79 27 102.59 3.79 96.59 3.82 91.03 27.04"/><polygon class="cls-1" points="41.33 27.01 47.09 27.01 52.83 3.86 46.93 3.82 41.33 27.01"/><polygon class="cls-1" points="138.76 15.47 141.72 23.21 144.32 9.01 138.76 15.47"/><path class="cls-1" d="M8.35,10h3.43c1,0,1.94.13,2.71.18a9.14,9.14,0,0,0,1,0h.18c1.38.22,2-2-.12-2.14A43.94,43.94,0,0,0,8.4,8c-2.5.3-1.25,1.92-.05,2"/><path class="cls-1" d="M4.35,22.71a13.76,13.76,0,0,0,5.08.19c2.46-.33,2-1.92-.06-2H7a11.86,11.86,0,0,0-2.4,0c-.65.19-1.38,1.46-.22,1.81"/><path class="cls-2" d="M129.39,15.54c-1.44.92-7.07,8-8.9,10.07a17.22,17.22,0,0,0-1,1.5l6.89-.1L132.29,20l2.54,6.93,5.77.08a35.46,35.46,0,0,1-2.16-5.45L136.3,15.1l9.2-11.33H139l-5.43,6.37-2.35-6.33-6-.06Z"/><polygon class="cls-2" points="100.88 27.08 106.96 27.04 108.74 18.72 118.78 18.64 119.6 13.52 109.99 13.51 110.91 9.11 121.99 9.04 123.38 3.9 106.58 3.91 100.88 27.08"/></svg>