<svg id="Capa_1" data-name="Capa 1" xmlns="http://www.w3.org/2000/svg" viewBox="0 0 512 512"><defs><style>.cls-1{fill:#76ccbb;}.cls-2{fill:#fff;}.cls-3{fill:#87e8d8;}.cls-4{fill:#e3e7f2;}.cls-5{fill:#3db2a3;}</style></defs><title>icon 1</title><rect class="cls-1" x="251.51" y="116.87" width="251.51" height="107.79"/><rect class="cls-2" x="8.98" y="116.87" width="251.51" height="107.79"/><rect class="cls-3" x="260.49" y="224.66" width="206.6" height="269.47"/><rect class="cls-2" x="53.9" y="224.66" width="206.6" height="269.47"/><rect class="cls-3" x="35.93" y="116.87" width="440.14" height="107.79"/><rect class="cls-4" x="80.84" y="224.66" width="359.3" height="269.47"/><path class="cls-5" d="M503,233.64H9a9,9,0,0,1-9-9V116.87a9,9,0,0,1,9-9H503a9,9,0,0,1,9,9V224.66a9,9,0,0,1-9,9ZM18,215.68H494V125.85H18Z"/><path class="cls-5" d="M354.67,125.85H206.07a9,9,0,0,1-8-13.13,61.56,61.56,0,0,1,11-15.42L279,27.43a62.88,62.88,0,0,1,88.92,88.92L361,123.22a9,9,0,0,1-6.35,2.63Zm-130.75-18H351l4.24-4.24a44.91,44.91,0,1,0-63.52-63.52Z"/><path class="cls-5" d="M206.07,125.85H152.46a9,9,0,0,1-6.35-2.63l-6.87-6.87a62.88,62.88,0,1,1,88.92-88.92l31.75,31.76a9,9,0,0,1,0,12.7L221.81,110A43.62,43.62,0,0,0,214,121,9,9,0,0,1,206.07,125.85Zm-49.89-18h44.66A57.45,57.45,0,0,1,209.1,97.3l31.76-31.75-25.4-25.41a44.91,44.91,0,0,0-63.52,63.52Z"/><path class="cls-5" d="M467.09,503.11H53.9a9,9,0,0,1-9-9V224.66a9,9,0,0,1,9-9H467.09a9,9,0,0,1,9,9V494.13a9,9,0,0,1-9,9Zm-404.21-18H458.1V233.64H62.88Z"/><path class="cls-5" d="M260.49,503.11a9,9,0,0,1-9-9V116.87a9,9,0,1,1,18,0V494.13a9,9,0,0,1-9,9Z"/><path class="cls-5" d="M467.09,359.39H53.9a9,9,0,1,1,0-18H467.09a9,9,0,0,1,0,18Z"/></svg>