<svg id="Capa_1" data-name="Capa 1" xmlns="http://www.w3.org/2000/svg" xmlns:xlink="http://www.w3.org/1999/xlink" viewBox="0 0 512 512"><defs><style>.cls-1{fill:#77c6b6;}.cls-2{fill:#e3e7f2;}.cls-3{fill:url(#Adsız_degrade_2);}.cls-4{fill:#fff;}.cls-5{fill:#87e8d8;}.cls-6{fill:url(#Adsız_degrade_2-2);}.cls-7{fill:#3db2a3;}</style><linearGradient id="Adsız_degrade_2" x1="-558.3" y1="-10.28" x2="-557.76" y2="-8.7" gradientTransform="translate(214573.87 1319.69) scale(384 131.43)" gradientUnits="userSpaceOnUse"><stop offset="0" stop-color="#d4e1f4"/><stop offset="0.17" stop-color="#d4e1f4"/><stop offset="0.2" stop-color="#d4e1f4"/><stop offset="0.2" stop-color="#dae4f4"/><stop offset="0.2" stop-color="#ebebf4"/><stop offset="0.2" stop-color="#f6f1f4"/><stop offset="0.2" stop-color="#fdf4f4"/><stop offset="0.2" stop-color="#fff5f4"/><stop offset="0.25" stop-color="#fff5f4"/><stop offset="0.26" stop-color="#fff5f4"/><stop offset="0.26" stop-color="#d4e1f4"/><stop offset="0.4" stop-color="#d4e1f4"/><stop offset="0.42" stop-color="#d4e1f4"/><stop offset="0.42" stop-color="#dae4f4"/><stop offset="0.42" stop-color="#ebebf4"/><stop offset="0.42" stop-color="#f6f1f4"/><stop offset="0.42" stop-color="#fdf4f4"/><stop offset="0.42" stop-color="#fff5f4"/><stop offset="0.49" stop-color="#fff5f4"/><stop offset="0.5" stop-color="#fff5f4"/><stop offset="0.5" stop-color="#f9f2f4"/><stop offset="0.5" stop-color="#e8ebf4"/><stop offset="0.5" stop-color="#dde5f4"/><stop offset="0.5" stop-color="#d6e2f4"/><stop offset="0.5" stop-color="#d4e1f4"/><stop offset="0.71" stop-color="#d4e1f4"/><stop offset="0.74" stop-color="#d4e1f4"/><stop offset="0.74" stop-color="#fff5f4"/><stop offset="0.83" stop-color="#fff5f4"/><stop offset="0.85" stop-color="#fff5f4"/><stop offset="0.85" stop-color="#d4e1f4"/></linearGradient><linearGradient id="Adsız_degrade_2-2" x1="-558.15" y1="-10.46" x2="-557.61" y2="-8.88" gradientTransform="translate(190629.32 1525.99) scale(341.33 145.07)" xlink:href="#Adsız_degrade_2"/></defs><title>icon 5</title><path class="cls-1" d="M418.13,136.52V238.93c48.61-12.39,81.26-32.14,85-54.64h.38V77.63C503.47,101.89,469.79,123.35,418.13,136.52Z"/><path class="cls-2" d="M418.13,145.07v97.31c48.61-12.39,55.66-10,59.35-32.48h.38V103.22C477.87,127.49,469.79,131.9,418.13,145.07Z"/><path class="cls-1" d="M418.13,244V346.42c48.61-12.39,81.26-32.14,85-54.64h.38V185.12C503.47,209.38,469.79,230.85,418.13,244Z"/><path class="cls-2" d="M418.13,247.47v102.4c48.61-12.39,55.66-10,59.35-32.48h.38V210.72C477.87,235,469.79,234.3,418.13,247.47Z"/><path class="cls-1" d="M418.13,340.5V442.91c48.61-12.39,81.26-32.14,85-54.64h.38V281.6C503.47,305.86,469.79,327.33,418.13,340.5Z"/><path class="cls-2" d="M418.13,349v97.31c48.61-12.39,55.66-10,59.35-32.48h.38V307.2C477.87,331.46,469.79,335.88,418.13,349Z"/><path class="cls-2" d="M298.67,8.53c-95.81,0-176.24,23.31-198.6,54.78A502.39,502.39,0,0,1,213.33,51.2c109.06,0,198.18,30.19,204.42,68.27h.38V140c51.66-13.17,85.33-34.63,85.33-58.9C503.47,41,411.77,8.53,298.67,8.53Z"/><path class="cls-3" d="M273.07,8.53c-95.81,0-156.84,23.31-179.2,54.78A339.67,339.67,0,0,1,187.73,51.2c109.06,0,198.18,30.19,204.42,68.27h.38V140c51.66-13.17,85.33-34.63,85.33-58.9C477.87,41,386.17,8.53,273.07,8.53Z"/><path class="cls-4" d="M213.33,196.27v102.4c-109.06,0-198.18-30.2-204.42-68.27H8.53V123.73C8.53,163.79,100.22,196.27,213.33,196.27Z"/><path class="cls-4" d="M8.91,119.47a26.3,26.3,0,0,0-.38,4.27v-4.27Z"/><path class="cls-1" d="M213.33,196.27v102.4c109.06,0,198.18-30.2,204.42-68.27h.38V123.73C418.13,163.79,326.44,196.27,213.33,196.27Z"/><path class="cls-1" d="M417.75,119.47a26.31,26.31,0,0,1,.38,4.27v-4.27Z"/><path class="cls-2" d="M187.73,196.27c-51.2-13.33-153.6-2.61-153.6-42.67v76.8h.38c6.24,38.07,44.16,68.27,153.22,68.27s198.56-4.6,204.8-42.67V123.73C392.53,163.79,297.19,224.77,187.73,196.27Z"/><path class="cls-2" d="M34.13,119.47v4.27a26.43,26.43,0,0,1,.38-4.27Z"/><path class="cls-2" d="M392.15,119.47a26.31,26.31,0,0,1,.38,4.27v-4.27Z"/><path class="cls-4" d="M213.33,298.67v102.4c-109.06,0-198.18-30.2-204.42-68.27H8.53V226.13C8.53,266.19,100.22,298.67,213.33,298.67Z"/><path class="cls-4" d="M8.91,221.87a26.3,26.3,0,0,0-.38,4.27v-4.27Z"/><path class="cls-1" d="M213.33,298.67v102.4c109.06,0,198.18-30.2,204.42-68.27h.38V226.13C418.13,266.19,326.44,298.67,213.33,298.67Z"/><path class="cls-1" d="M417.75,221.87a26.31,26.31,0,0,1,.38,4.27v-4.27Z"/><path class="cls-2" d="M392.53,265c0-16-19-2.87-30.62,8.09-36.74,34.7-97.91,29.87-174.18,25.6-52.82-3-153.6-2.61-153.6-42.67v76.8h.38c6.24,38.07,44.16,68.27,153.22,68.27s198.56-4.6,204.8-42.67"/><path class="cls-2" d="M34.13,221.87v4.27a26.43,26.43,0,0,1,.38-4.27Z"/><path class="cls-4" d="M213.33,401.07v102.4c-109.06,0-198.18-30.2-204.42-68.27H8.53V328.53C8.53,368.59,100.22,401.07,213.33,401.07Z"/><path class="cls-4" d="M8.91,324.27a26.3,26.3,0,0,0-.38,4.27v-4.27Z"/><path class="cls-1" d="M213.33,401.07v102.4c109.06,0,198.18-30.2,204.42-68.27h.38V328.53C418.13,368.59,326.44,401.07,213.33,401.07Z"/><path class="cls-1" d="M417.75,324.27a26.31,26.31,0,0,1,.38,4.27v-4.27Z"/><path class="cls-2" d="M187.73,401.07c-52.82-3-153.6-2.61-153.6-42.67v76.8h.38c6.24,38.07,44.16,68.27,153.22,68.27s193.6-17.07,204.8-42.67V367.37c0-16-19-2.87-30.62,8.09C325.17,410.17,264,405.33,187.73,401.07Z"/><path class="cls-2" d="M34.13,324.27v4.27a26.43,26.43,0,0,1,.38-4.27Z"/><path class="cls-4" d="M213.33,196.27V51.2c-113.11,0-204.8,32.48-204.8,72.53S100.23,196.27,213.33,196.27Z"/><path class="cls-5" d="M213.33,51.2V196.27c113.11,0,204.8-32.48,204.8-72.53S326.44,51.2,213.33,51.2Z"/><path class="cls-6" d="M384,123.73c0,40.06-91.69,72.53-204.8,72.53S42.67,163.79,42.67,123.73,66.09,51.2,179.2,51.2,384,83.67,384,123.73Z"/><path class="cls-7" d="M213.33,512C101.24,512,11.07,480.82,1,439a8,8,0,0,1-1-3.85V328.53a8.53,8.53,0,0,1,17.07,0c0,30.27,80.6,64,196.27,64s196.27-33.73,196.27-64a8.53,8.53,0,0,1,17.07,0V435.2a8.44,8.44,0,0,1-1.07,4.13C415.19,481,325.17,512,213.33,512ZM17.07,432.7a8.06,8.06,0,0,1,.27,1.12c4.83,29.52,84.75,61.12,196,61.12s191.16-31.6,196-61.12a8.9,8.9,0,0,1,.27-1.15V360.9c-29.38,26.91-96.18,48.7-196.27,48.7S46.45,387.81,17.07,360.9Z"/><path class="cls-7" d="M8.53,337.07A8.53,8.53,0,0,1,0,328.53v-4.27a8.53,8.53,0,0,1,8.53-8.53h.38a8.52,8.52,0,0,1,8.42,9.92,17.65,17.65,0,0,0-.27,2.88,8.53,8.53,0,0,1-8.53,8.53Z"/><path class="cls-7" d="M418.13,337.07a8.53,8.53,0,0,1-8.53-8.53,17.64,17.64,0,0,0-.27-2.88,8.52,8.52,0,0,1,8.42-9.92h.38a8.53,8.53,0,0,1,8.53,8.53v4.27a8.53,8.53,0,0,1-8.53,8.53Z"/><path class="cls-7" d="M213.33,409.6c-112.09,0-202.26-31.18-212.33-73a8,8,0,0,1-1-3.85V226.13a8.53,8.53,0,1,1,17.07,0c0,30.27,80.6,64,196.27,64s196.27-33.73,196.27-64a8.53,8.53,0,1,1,17.07,0V332.8a8.44,8.44,0,0,1-1.07,4.13C415.19,378.55,325.17,409.6,213.33,409.6ZM17.07,330.3a8.06,8.06,0,0,1,.27,1.12c4.83,29.52,84.75,61.12,196,61.12s191.16-31.6,196-61.12a8.9,8.9,0,0,1,.27-1.15V258.5c-29.38,26.91-96.18,48.7-196.27,48.7S46.45,285.41,17.07,258.5Z"/><path class="cls-7" d="M8.53,234.67A8.53,8.53,0,0,1,0,226.13v-4.27a8.53,8.53,0,0,1,8.53-8.53h.38a8.52,8.52,0,0,1,8.42,9.92,17.65,17.65,0,0,0-.27,2.88,8.53,8.53,0,0,1-8.53,8.53Z"/><path class="cls-7" d="M418.13,234.67a8.53,8.53,0,0,1-8.53-8.53,17.64,17.64,0,0,0-.27-2.88,8.52,8.52,0,0,1,8.42-9.92h.38a8.53,8.53,0,0,1,8.53,8.53v4.27a8.53,8.53,0,0,1-8.53,8.53Z"/><path class="cls-7" d="M213.33,204.8C74.77,204.8,0,163,0,123.73S74.77,42.67,213.33,42.67s213.33,41.77,213.33,81.07S351.9,204.8,213.33,204.8Zm0-145.07c-115.67,0-196.27,33.72-196.27,64s80.6,64,196.27,64S409.6,154,409.6,123.73,329,59.73,213.33,59.73Z"/><path class="cls-7" d="M213.33,307.2C101.24,307.2,11.07,276,1,234.25a8,8,0,0,1-1-3.85V123.73a8.53,8.53,0,0,1,17.07,0c0,30.27,80.6,64,196.27,64S409.6,154,409.6,123.73a8.53,8.53,0,1,1,17.07,0V230.4a8.44,8.44,0,0,1-1.07,4.13C415.19,276.15,325.17,307.2,213.33,307.2ZM17.07,227.9a8.06,8.06,0,0,1,.27,1.12c4.83,29.52,84.75,61.12,196,61.12s191.16-31.6,196-61.12a8.91,8.91,0,0,1,.27-1.15V156.1c-29.38,26.91-96.18,48.7-196.27,48.7S46.45,183,17.07,156.1Z"/><path class="cls-7" d="M8.53,132.27A8.53,8.53,0,0,1,0,123.73v-4.27a8.53,8.53,0,0,1,8.53-8.53h.38a8.52,8.52,0,0,1,8.42,9.92,17.65,17.65,0,0,0-.27,2.88,8.53,8.53,0,0,1-8.53,8.53Z"/><path class="cls-7" d="M418.13,132.27a8.53,8.53,0,0,1-8.53-8.53,17.64,17.64,0,0,0-.27-2.88,8.52,8.52,0,0,1,8.42-9.92h.38a8.53,8.53,0,0,1,8.53,8.53v4.27a8.53,8.53,0,0,1-8.53,8.53Z"/><path class="cls-7" d="M418.13,148.5A8.53,8.53,0,0,1,409.6,140V122a8.2,8.2,0,0,1-.27-1.12c-4.83-29.51-84.73-61.11-196-61.11A494.1,494.1,0,0,0,102,71.62a8.53,8.53,0,0,1-8.92-13.25C117.93,23.46,200.52,0,298.67,0,437.23,0,512,41.77,512,81.07c0,27.82-33.44,52.31-91.76,67.17A8.33,8.33,0,0,1,418.13,148.5Zm7.54-32.88a8.08,8.08,0,0,1,1,3.85v9.32c42.4-12.41,68.27-30.31,68.27-47.72,0-30.28-80.6-64-196.27-64-75,0-133.58,13.94-166.52,31.44a549.07,549.07,0,0,1,81.18-5.84c112.1,0,202.28,31.18,212.34,73Z"/><path class="cls-7" d="M418.13,250.91a8.53,8.53,0,0,1-8.53-8.53V140A8.52,8.52,0,0,1,416,131.7c48.67-12.41,78.91-31.81,78.91-50.63a8.53,8.53,0,0,1,17.07,0V187.73a8.54,8.54,0,0,1-1,4.11c-6,24.57-38,45.37-90.71,58.8a8.33,8.33,0,0,1-2.11.27Zm8.53-104.37v84.66c39.59-11.63,65.31-28.43,68-44.83a8.67,8.67,0,0,1,.27-1.16V113.89a171.83,171.83,0,0,1-68.27,32.64Z"/><path class="cls-7" d="M418.13,353.31a8.53,8.53,0,0,1-8.53-8.53V242.37A8.52,8.52,0,0,1,416,234.1c48.67-12.41,78.91-31.81,78.91-50.63a8.53,8.53,0,1,1,17.07,0V290.13a8.53,8.53,0,0,1-1,4.11c-6,24.57-38,45.37-90.71,58.8a8.28,8.28,0,0,1-2.11.27Zm8.53-104.38v84.66c39.59-11.63,65.31-28.43,68-44.83a8.67,8.67,0,0,1,.27-1.16V216.29a171.83,171.83,0,0,1-68.27,32.64Z"/><path class="cls-7" d="M411.89,457.23a8.53,8.53,0,0,1-7-13.48,23.93,23.93,0,0,0,4.38-9.92,8.72,8.72,0,0,1,.27-1.16v-87.9A8.52,8.52,0,0,1,416,336.5c48.67-12.41,78.91-31.81,78.91-50.63a8.53,8.53,0,1,1,17.07,0V392.53a8.47,8.47,0,0,1-1.06,4.12C504.67,422,469.57,443.87,413.85,457A8.71,8.71,0,0,1,411.89,457.23Zm14.77-105.89V435.2c0,.27,0,.53,0,.79,39.74-11.64,65.32-28.27,68-44.84a8.9,8.9,0,0,1,.27-1.15V318.69a171.83,171.83,0,0,1-68.27,32.64Z"/></svg>