<svg id="Capa_1" data-name="Capa 1" xmlns="http://www.w3.org/2000/svg" viewBox="0 0 350 350"><defs><style>.cls-1{fill:#38b2a3;}</style></defs><title>male</title><path class="cls-1" d="M175,171.17c38.91,0,70.46-38.32,70.46-85.59S235.1,0,175,0s-70.46,38.32-70.46,85.59S136.08,171.17,175,171.17Z"/><path class="cls-1" d="M41.91,301.85c0-2.88,0-.81,0,0Z"/><path class="cls-1" d="M308.08,304.1c0-.79,0-5.47,0,0Z"/><path class="cls-1" d="M307.93,298.4c-1.3-82.34-12.06-105.8-94.35-120.66,0,0-11.58,14.76-38.58,14.76s-38.59-14.76-38.59-14.76c-81.39,14.69-92.8,37.81-94.3,118-.12,6.55-.18,6.89-.2,6.13,0,1.42,0,4.06,0,8.65,0,0,19.59,39.5,133.08,39.5s133.08-39.5,133.08-39.5c0-3,0-5,0-6.4C308.06,304.58,308,303.66,307.93,298.4Z"/></svg>