<svg id="Capa_1" data-name="Capa 1" xmlns="http://www.w3.org/2000/svg" viewBox="0 0 512 512"><defs><style>.cls-1{fill:#87e8d8;}.cls-2{fill:#e3e7f2;}.cls-3{fill:#fff;}.cls-4{fill:#3db2a3;}</style></defs><title>official account sign</title><circle class="cls-1" cx="256" cy="256" r="246.15"/><ellipse class="cls-2" cx="256" cy="256" rx="216.61" ry="246.15"/><path class="cls-3" d="M39.38,256c0-135.95,97-246.15,216.62-246.15C120.05,9.85,9.85,120.05,9.85,256S120.05,502.15,256,502.15C136.37,502.15,39.38,391.95,39.38,256Z"/><path class="cls-4" d="M256,512C114.61,512,0,397.39,0,256S114.61,0,256,0,512,114.61,512,256C511.84,397.32,397.32,511.84,256,512Zm0-492.31C125.49,19.69,19.69,125.49,19.69,256S125.49,492.31,256,492.31,492.31,386.51,492.31,256C492.16,125.55,386.45,19.84,256,19.69Z"/><path class="cls-4" d="M206.23,300c8.71,18.35,23,29.55,42.93,33.28V266.11c-19.6-7.15-34.53-15.24-44.79-24.57s-15.24-22.4-15.24-39.5q0-24.73,16.8-40.13c11.51-10.27,25.82-16.18,42.93-17.42V114h22.09v31.42c22.71,3.42,40.44,14.62,52.88,33.28L296.13,198c-6.22-9.64-14.62-15.86-25.51-18v56.61c24,8.71,40.75,18,50.7,28.31s14.93,23.64,14.93,40.13c0,35.15-22.71,59.72-65.32,63.14V398H248.85V367.83C214,365,188.5,346.36,175.75,319ZM249.16,178.7c-14,2.18-22.71,10.26-22.71,23,0,13.38,6.84,20.22,22.71,26.75Zm21.46,154.6c20.84-2.18,27.68-14.62,27.68-27.37,0-15.24-8.09-22.71-27.68-31.73Z"/></svg>