<svg id="Capa_1" data-name="Capa 1" xmlns="http://www.w3.org/2000/svg" viewBox="0 0 386.1 386.1"><defs><style>.cls-1{fill:#1a324c;}</style></defs><title>PAY-creditcard</title><path class="cls-1" d="M308.9,55H22.4C9.9,55,0,65.55,0,77.95v176.2A22.19,22.19,0,0,0,22.4,276H34V132.35A42.47,42.47,0,0,1,76.7,90H331.1V77.95C331.1,65.55,321.4,55,308.9,55Z"/><path class="cls-1" d="M340.1,262a16,16,0,0,0-22.6,2,10.61,10.61,0,0,1-1.5,1.5,10,10,0,0,1-14.1-1.5,16.11,16.11,0,1,0-12.3,26.4,15.64,15.64,0,0,0,12.4-5.8,9.92,9.92,0,0,1,7.7-3.6,9.66,9.66,0,0,1,7.7,3.5,13.9,13.9,0,0,0,2.1,2.1A16,16,0,1,0,340.1,262Z"/><path class="cls-1" d="M363.3,110.05H76.7A22.47,22.47,0,0,0,54,132.35v14.7H386.1v-14.7A22.49,22.49,0,0,0,363.3,110.05Z"/><rect class="cls-1" x="54" y="167.05" width="332" height="26"/><path class="cls-1" d="M54,213.05v95.1A22.85,22.85,0,0,0,76.7,331H363.2a23,23,0,0,0,22.8-22.9V213H54Zm305.9,81.4a36.19,36.19,0,0,1-50.2,9.7,35.64,35.64,0,0,1-20.2,6.2,36.15,36.15,0,0,1,0-72.3,35.64,35.64,0,0,1,20.2,6.2,36.15,36.15,0,0,1,50.2,50.2Z"/></svg>