<svg id="Capa_1" data-name="Capa 1" xmlns="http://www.w3.org/2000/svg" viewBox="0 0 405.33 405.33"><defs><style>.cls-1{fill:#fff;}</style></defs><title>phone</title><path class="cls-1" d="M373.33,266.88a231.53,231.53,0,0,1-72.7-11.56A31.19,31.19,0,0,0,269,262l-46,34.73A257.11,257.11,0,0,1,108.57,182.38l33.81-44.93a32.28,32.28,0,0,0,7.91-32.64A231.79,231.79,0,0,1,138.67,32a32,32,0,0,0-32-32H32A32,32,0,0,0,0,32C.23,238.09,167.24,405.1,373.33,405.33a32,32,0,0,0,32-32V298.88A32,32,0,0,0,373.33,266.88Z"/><path class="cls-1" d="M394.67,170.67A10.67,10.67,0,0,1,384,160,138.84,138.84,0,0,0,245.33,21.33a10.67,10.67,0,1,1,0-21.33,160.17,160.17,0,0,1,160,160A10.67,10.67,0,0,1,394.67,170.67Z"/><path class="cls-1" d="M309.33,170.67A10.67,10.67,0,0,1,298.67,160a53.33,53.33,0,0,0-53.33-53.33,10.67,10.67,0,0,1,0-21.33A74.67,74.67,0,0,1,320,160,10.67,10.67,0,0,1,309.33,170.67Z"/></svg>