<svg id="katman_1" data-name="katman 1" xmlns="http://www.w3.org/2000/svg" viewBox="0 0 100 125"><defs><style>.cls-1{fill:#fff;stroke:#fff;stroke-miterlimit:10;}</style></defs><title>secure</title><path class="cls-1" d="M74,30H45.54a1,1,0,0,0,0,2H74a3,3,0,0,1,3,3v2H43.82a1,1,0,0,0,0,2h.58v6H41.85a1,1,0,0,0,0,2H77V65a3,3,0,0,1-3,3H50.2a1,1,0,1,0,0,2H74a5,5,0,0,0,5-5V35A5,5,0,0,0,74,30ZM46.4,45V39h2.1v6Zm4.1,0V39h2.1v6Zm4.1,0V39h2.1v6Zm4.1,0V39h2.1v6Zm4.1,0V39h2.1v6Zm4.1,0V39H69v6ZM71,45V39h2.1v6Zm4.1,0V39H77v6Z"/><path class="cls-1" d="M63.5,62.09a5.44,5.44,0,0,0,3,.91,5.5,5.5,0,0,0,0-11,5.44,5.44,0,0,0-3,.91,5.44,5.44,0,0,0-3-.91,5.5,5.5,0,0,0,0,11A5.44,5.44,0,0,0,63.5,62.09ZM57,57.5a3.48,3.48,0,0,1,5.83-2.59,1,1,0,0,0,1.34,0,3.5,3.5,0,1,1,0,5.18,1,1,0,0,0-1.34,0A3.48,3.48,0,0,1,57,57.5Z"/><path class="cls-1" d="M44,60H43V56.5a4.5,4.5,0,0,0-9,0V60H33a3,3,0,0,0-3,3v7a3,3,0,0,0,3,3H44a3,3,0,0,0,3-3V63A3,3,0,0,0,44,60Zm-8-3.5a2.5,2.5,0,0,1,5,0V60H36ZM45,70a1,1,0,0,1-1,1H33a1,1,0,0,1-1-1V63a1,1,0,0,1,1-1H44a1,1,0,0,1,1,1Z"/><circle class="cls-1" cx="38.5" cy="66.5" r="1.5"/><path class="cls-1" d="M26,37H37a1,1,0,0,0,0-2H26a1,1,0,0,0,0,2Z"/><path class="cls-1" d="M17,37h2a1,1,0,0,0,0-2H17a1,1,0,0,0,0,2Z"/><path class="cls-1" d="M24,56H19a1,1,0,0,0,0,2h5a1,1,0,0,0,0-2Z"/><path class="cls-1" d="M27,42H19a1,1,0,0,0,0,2h8a1,1,0,0,0,0-2Z"/><path class="cls-1" d="M32.07,42a1,1,0,0,0,0,2H36a1,1,0,0,0,0-2Z"/><path class="cls-1" d="M26,50H14a1,1,0,0,0,0,2H26a1,1,0,0,0,0-2Z"/><path class="cls-1" d="M23,63H14a1,1,0,0,0,0,2h9a1,1,0,0,0,0-2Z"/></svg>