<svg id="katman_1" data-name="katman 1" xmlns="http://www.w3.org/2000/svg" viewBox="0 0 512 512"><defs><style>.cls-1{fill:#87e8d8;}.cls-2{fill:#77c6b6;}.cls-3{fill:#e8f9f5;}.cls-4{fill:#b8f4e9;}.cls-5{fill:#fff;}.cls-6{fill:#3db2a3;}</style></defs><title>secure</title><path id="Shape" class="cls-1" d="M460.8,85.33l-.09,119.47C457.47,338.69,431.45,415.74,256,503.47,80.55,415.74,54.53,338.69,51.29,204.8V145.07L51.2,85.33,256,8.53Z"/><path id="Shape-2" data-name="Shape" class="cls-2" d="M256,8.53l-12.8,4.8,192,72-.09,119.47C432,335.36,407,411.86,243.2,496.91c4.2,2.18,8.41,4.36,12.8,6.55C431.45,415.74,457.47,338.69,460.71,204.8l.09-119.47Z"/><path id="Shape-3" data-name="Shape" class="cls-3" d="M256,455.5C113.62,380.18,96.79,319.3,94,204.27l-.09-89.38L256,54.1l162.13,60.79L418,204.27c-2.83,115-19.67,175.91-162,251.23Z"/><path id="Shape-4" data-name="Shape" class="cls-4" d="M256,54.1l-12.8,4.78,149.33,56-.09,89.38c-2.75,111.46-18.69,172.1-149.25,244.31q6.23,3.41,12.8,6.92c142.38-75.32,159.21-136.2,162-251.23l.09-89.38Z"/><path id="Shape-5" data-name="Shape" class="cls-5" d="M243.2,496.91c4.2,2.18,8.41,4.36,12.8,6.55,4.4-2.2,8.53-4.39,12.8-6.57C61,389.05,77.1,296.49,76.8,85.33l192-72L256,8.53,51.2,85.33C51.5,296.5,35.41,389.07,243.2,496.91Z"/><path id="Shape-6" data-name="Shape" class="cls-5" d="M64.61,271.7,47.7,274a682.11,682.11,0,0,1-4.95-69l17.07-.41a664.83,664.83,0,0,0,4.79,67.11Z"/><path id="Shape-7" data-name="Shape" class="cls-6" d="M53,247.47a8.53,8.53,0,0,1-.09-17.07H53a8.53,8.53,0,1,1,0,17.07Z"/><path id="Shape-8" data-name="Shape" class="cls-6" d="M469.25,204.8l.09-119.47a8.53,8.53,0,0,0-5.53-8L259,.53a8.66,8.66,0,0,0-6,0L48.23,77.33a8.53,8.53,0,0,0-5.56,8l.09,59.73a8.53,8.53,0,0,0,17.07,0l-.09-53.83L256,17.65,452.27,91.24l-.09,113.36C448.91,340,420.73,410.63,256,493.88a717.21,717.21,0,0,1-65-37,354.32,354.32,0,0,1-61.27-48.38,217,217,0,0,1-44.42-62.43A259.18,259.18,0,0,1,64.61,271.7a8.44,8.44,0,0,0-9.39-7.32A8.63,8.63,0,0,0,47.74,274a276.07,276.07,0,0,0,22.08,79.26,234.21,234.21,0,0,0,47.85,67.27,370.42,370.42,0,0,0,64.09,50.65,765.14,765.14,0,0,0,70.44,39.9V511a8.23,8.23,0,0,0,7.6.07C434.78,423.61,465.83,346,469.25,204.8Z"/><path id="Shape-9" data-name="Shape" class="cls-6" d="M59.82,204.8V187.73a8.53,8.53,0,1,0-17.07,0V204.8a8.53,8.53,0,1,0,17.07,0Z"/><path id="Shape-10" data-name="Shape" class="cls-6" d="M252,463a8.53,8.53,0,0,0,8,0c146.32-77.41,163.69-141.18,166.59-258.77l.09-89.37a8.53,8.53,0,0,0-5.53-8L259,46.11a8.66,8.66,0,0,0-6,0L90.9,106.9a8.53,8.53,0,0,0-5.53,8l.07,89.6C88.31,321.86,105.69,385.63,252,463ZM102.4,120.8,256,63.21,409.6,120.8l-.06,83.26c-2.78,112-18.24,169.26-153.54,241.77C120.7,373.3,105.24,316.08,102.49,204.26Z"/><path id="Shape-11" data-name="Shape" class="cls-6" d="M164.41,124.92a8.53,8.53,0,0,0-11-5L125,130.56a8.53,8.53,0,0,0-5.53,8v32.09a8.53,8.53,0,0,0,17.07,0V144.49l22.89-8.58a8.53,8.53,0,0,0,5-11Z"/><path id="Shape-12" data-name="Shape" class="cls-4" d="M287.48,307.39l15.59,21.26a4.65,4.65,0,0,0,8.18-1.39l49.87-162.59a4.65,4.65,0,0,0-5.8-5.8l-162.6,49.87a4.65,4.65,0,0,0-1.39,8.18l37.39,27.42a4.65,4.65,0,0,1,.53,7l-61.77,61.78a4.65,4.65,0,0,0,0,6.56l16.4,16.4,16.4,16.4a4.65,4.65,0,0,0,6.56,0l61.78-61.78a4.65,4.65,0,0,1,7,.53Z"/><path id="Shape-13" data-name="Shape" class="cls-1" d="M261.72,291.26a4.65,4.65,0,0,0-7-.53l-58.1,58.1,3.69,3.72a4.65,4.65,0,0,0,6.56,0l57.57-57.59Z"/><path id="Shape-14" data-name="Shape" class="cls-1" d="M355.33,158.87,347,161.44a4.52,4.52,0,0,1,.23,3.23l-48.47,158,4.36,6a4.65,4.65,0,0,0,8.18-1.39l49.86-162.58a4.65,4.65,0,0,0-5.8-5.8Z"/><path id="Shape-15" data-name="Shape" class="cls-6" d="M180.73,295.35h-.05a4.68,4.68,0,1,0,.05,0Z"/><path id="Shape-16" data-name="Shape" class="cls-6" d="M197,355.79a9.3,9.3,0,0,0,13.13,0L271.91,294a4.65,4.65,0,0,0,7.5-5.5,9.3,9.3,0,0,0-14.05-1.07l-61.77,61.78-32.8-32.78a4.65,4.65,0,1,0-6.57-6.58,9.3,9.3,0,0,0,0,13.13Z"/><path id="Shape-17" data-name="Shape" class="cls-6" d="M306.83,325.9l-15.59-21.26a4.65,4.65,0,1,0-7.52,5.49l15.59,21.27a9.23,9.23,0,0,0,7.46,3.79,9.47,9.47,0,0,0,1.57-.13,9.23,9.23,0,0,0,7.33-6.43L365.57,166A9.3,9.3,0,0,0,354,154.41L191.37,204.3a9.3,9.3,0,0,0-2.79,16.36L226,248.09,190.5,283.56a4.65,4.65,0,1,0,6.57,6.57l35.49-35.49a9.3,9.3,0,0,0-1.07-14.05l-37.39-27.42,162.59-49.86Z"/><path id="Shape-18" data-name="Shape" class="cls-6" d="M248.43,206.24l-25,7.68a4.65,4.65,0,1,0,2.73,8.89l25-7.68a4.65,4.65,0,1,0-2.72-8.89Z"/><path id="Shape-19" data-name="Shape" class="cls-6" d="M273,208.21a4.65,4.65,0,0,0,1.36-.21l8.05-2.47a4.65,4.65,0,0,0-2.72-8.89l-8.05,2.47a4.65,4.65,0,0,0,1.36,9.1Z"/></svg>