<svg id="Capa_1" data-name="Capa 1" xmlns="http://www.w3.org/2000/svg" xmlns:xlink="http://www.w3.org/1999/xlink" viewBox="0 0 503.61 503.61"><defs><style>.cls-1{fill:#87e8d8;}.cls-2{fill:#fff;}.cls-3{fill:#e3e7f2;}.cls-4{fill:url(#Adsız_degrade);}.cls-5{fill:#3db2a3;}</style><linearGradient id="Adsız_degrade" x1="-618.71" y1="644.09" x2="-617.44" y2="643.26" gradientTransform="matrix(218.23, 0, 0, -335.74, 135134.91, 216332.79)" gradientUnits="userSpaceOnUse"><stop offset="0" stop-color="#d4e1f4"/><stop offset="0.17" stop-color="#d4e1f4"/><stop offset="0.2" stop-color="#d4e1f4"/><stop offset="0.2" stop-color="#dae4f4"/><stop offset="0.2" stop-color="#ebebf4"/><stop offset="0.2" stop-color="#f6f1f4"/><stop offset="0.2" stop-color="#fdf4f4"/><stop offset="0.2" stop-color="#fff5f4"/><stop offset="0.25" stop-color="#fff5f4"/><stop offset="0.26" stop-color="#fff5f4"/><stop offset="0.26" stop-color="#d4e1f4"/><stop offset="0.4" stop-color="#d4e1f4"/><stop offset="0.42" stop-color="#d4e1f4"/><stop offset="0.42" stop-color="#dae4f4"/><stop offset="0.42" stop-color="#ebebf4"/><stop offset="0.42" stop-color="#f6f1f4"/><stop offset="0.42" stop-color="#fdf4f4"/><stop offset="0.42" stop-color="#fff5f4"/><stop offset="0.49" stop-color="#fff5f4"/><stop offset="0.5" stop-color="#fff5f4"/><stop offset="0.5" stop-color="#f9f2f4"/><stop offset="0.5" stop-color="#e8ebf4"/><stop offset="0.5" stop-color="#dde5f4"/><stop offset="0.5" stop-color="#d6e2f4"/><stop offset="0.5" stop-color="#d4e1f4"/><stop offset="0.71" stop-color="#d4e1f4"/><stop offset="0.74" stop-color="#d4e1f4"/><stop offset="0.74" stop-color="#fff5f4"/><stop offset="0.83" stop-color="#fff5f4"/><stop offset="0.85" stop-color="#fff5f4"/><stop offset="0.85" stop-color="#d4e1f4"/></linearGradient></defs><title>smartphone</title><path class="cls-1" d="M268.6,8.39h97.32A28.58,28.58,0,0,1,394.5,37V466.63a28.58,28.58,0,0,1-28.58,28.58H268.6A28.58,28.58,0,0,1,240,466.63V37A28.58,28.58,0,0,1,268.6,8.39Z"/><path class="cls-2" d="M146.1,8.39h97.32A28.58,28.58,0,0,1,272,37V466.63a28.58,28.58,0,0,1-28.58,28.58H146.1a28.58,28.58,0,0,1-28.58-28.58V37A28.58,28.58,0,0,1,146.1,8.39Z"/><path class="cls-3" d="M171.28,8.39H332.34A28.58,28.58,0,0,1,360.92,37V466.63a28.58,28.58,0,0,1-28.58,28.58H171.28a28.58,28.58,0,0,1-28.58-28.58V37A28.58,28.58,0,0,1,171.28,8.39Z"/><rect class="cls-1" x="240.01" y="58.76" width="154.49" height="335.74"/><rect class="cls-4" x="142.69" y="58.76" width="218.23" height="335.74"/><circle class="cls-1" cx="251.81" cy="444.86" r="25.18"/><path class="cls-5" d="M357.52,503.61H146.1a37,37,0,0,1-37-37V37a37,37,0,0,1,37-37H357.52a37,37,0,0,1,37,37V466.63A37,37,0,0,1,357.52,503.61ZM146.1,16.79A20.21,20.21,0,0,0,125.91,37V466.63a20.21,20.21,0,0,0,20.19,20.19H357.52a20.21,20.21,0,0,0,20.19-20.19V37a20.21,20.21,0,0,0-20.19-20.19Z"/><path class="cls-5" d="M251.81,478.43a33.57,33.57,0,1,1,33.57-33.57,33.57,33.57,0,0,1-33.57,33.57Zm0-50.36a16.79,16.79,0,1,0,16.79,16.79A16.79,16.79,0,0,0,251.81,428.07Z"/><path class="cls-5" d="M386.1,402.89H117.51a8.39,8.39,0,0,1,0-16.79H386.1a8.39,8.39,0,0,1,0,16.79Z"/><path class="cls-5" d="M386.1,67.15H117.51a8.39,8.39,0,1,1,0-16.79H386.1a8.39,8.39,0,1,1,0,16.79Z"/><path class="cls-5" d="M251.81,42H218.24a8.39,8.39,0,1,1,0-16.79h33.57a8.39,8.39,0,0,1,0,16.79Z"/><path class="cls-5" d="M285.38,42H277a8.39,8.39,0,1,1,0-16.79h8.39a8.39,8.39,0,1,1,0,16.79Z"/></svg>