<svg id="Capa_1" data-name="Capa 1" xmlns="http://www.w3.org/2000/svg" viewBox="0 0 512 512"><defs><style>.cls-1{fill:#efedef;}.cls-2{fill:#e5e1e5;}.cls-3{fill:#c9bfc8;}.cls-4{fill:#baafb9;}.cls-5{fill:#99e6fc;}.cls-6{fill:#62dbfb;}.cls-7{fill:#9cf8d2;}.cls-8{fill:#f07281;}.cls-9{fill:#e53950;}.cls-10{fill:#eb5569;}.cls-11{fill:#6cf5c2;}</style></defs><title>webtrader</title><path class="cls-1" d="M341.82,471.77l-14.57-17H185.53l-15.36,17L142,504.5H370Z"/><path class="cls-2" d="M261.29,454.8H185.53l-15.36,17L142,504.5h75.76l28.22-32.73Z"/><path class="cls-3" d="M170.18,359.82H341.82V471.77H170.18Z"/><path class="cls-4" d="M341.82,359.82H170.18V471.77h75.55V468a19.65,19.65,0,0,1,19.65-19.65h76.45Z"/><path class="cls-5" d="M484.48,403.29l19.1-20.08v-264A40.16,40.16,0,0,0,463.43,79H48.57A40.16,40.16,0,0,0,8.41,119.16v264l34.86,20.08Z"/><g id="_Grup_" data-name="&lt;Grup&gt;"><path class="cls-6" d="M175,383.21v-264A40.16,40.16,0,0,1,215.14,79H48.57A40.16,40.16,0,0,0,8.41,119.16v264l34.86,20.08H180.36A40,40,0,0,1,175,383.21Z"/><path class="cls-1" d="M8.41,383.21H503.58a40.16,40.16,0,0,1-40.16,40.17H48.57A40.16,40.16,0,0,1,8.41,383.21Z"/><path class="cls-2" d="M175,383.21H8.41a40.16,40.16,0,0,0,40.16,40.17H215.13A40.16,40.16,0,0,1,175,383.21Z"/></g><path class="cls-7" d="M99.07,306.1a7.5,7.5,0,0,1-7.5-7.5V130a7.5,7.5,0,0,1,15,0V298.6A7.5,7.5,0,0,1,99.07,306.1Z"/><path class="cls-8" d="M187.47,139.1a7.5,7.5,0,0,1-7.5-7.5V67.8a7.5,7.5,0,0,1,15,0v63.81a7.5,7.5,0,0,1-7.5,7.5Z"/><path class="cls-8" d="M187.47,291.6a7.5,7.5,0,0,1-7.5-7.5V189.38a7.5,7.5,0,1,1,15,0V284.1A7.5,7.5,0,0,1,187.47,291.6Z"/><path class="cls-7" d="M275.87,91.8a7.5,7.5,0,0,1-7.5-7.5V7.5a7.5,7.5,0,0,1,15,0V84.3A7.5,7.5,0,0,1,275.87,91.8Z"/><path class="cls-7" d="M275.87,250.45a7.5,7.5,0,0,1-7.5-7.5V133.78a7.5,7.5,0,0,1,15,0V242.95A7.5,7.5,0,0,1,275.87,250.45Z"/><path class="cls-8" d="M364.27,171.55a7.5,7.5,0,0,1-7.5-7.5V41.42a7.5,7.5,0,0,1,15,0V164.06A7.5,7.5,0,0,1,364.27,171.55Z"/><path class="cls-8" d="M364.27,301.94a7.5,7.5,0,0,1-7.5-7.5V192.59a7.5,7.5,0,0,1,15,0V294.44A7.5,7.5,0,0,1,364.27,301.94Z"/><path class="cls-9" d="M323.84,242.12,171.56,324.22,163,301.88a7.5,7.5,0,0,0-10-4.22L49.18,342.13a7.5,7.5,0,1,0,5.9,13.78l96.73-41.4,8.79,23a7.49,7.49,0,0,0,10.56,3.92L331,255.31a7.5,7.5,0,1,0-7.12-13.19Z"/><path class="cls-9" d="M467.85,170l-23.51-9A7.5,7.5,0,0,0,439,175l5.45,2.08-33.87,18.26a7.5,7.5,0,1,0,7.12,13.2l34.53-18.62-2.48,6.52a7.5,7.5,0,1,0,14,5.34l8.44-22.15a7.5,7.5,0,0,0-4.34-9.67Z"/><path class="cls-3" d="M382.38,512H128.93a7.5,7.5,0,1,1,0-15H382.38a7.5,7.5,0,0,1,0,15Z"/><path class="cls-10" d="M377.4,227.48H351.15a6.75,6.75,0,0,1-6.75-6.75V132.48a6.75,6.75,0,0,1,6.75-6.75H377.4a6.75,6.75,0,0,1,6.75,6.75v88.25A6.75,6.75,0,0,1,377.4,227.48Z"/><path class="cls-11" d="M289,195.53H262.75a6.75,6.75,0,0,1-6.75-6.75V51.56a6.75,6.75,0,0,1,6.75-6.75H289a6.75,6.75,0,0,1,6.75,6.75V188.78A6.75,6.75,0,0,1,289,195.53Z"/><path class="cls-10" d="M200.59,210.37H174.35a6.75,6.75,0,0,1-6.75-6.75V115.37a6.75,6.75,0,0,1,6.75-6.75h26.24a6.75,6.75,0,0,1,6.75,6.75v88.25A6.75,6.75,0,0,1,200.59,210.37Z"/><path class="cls-11" d="M112.19,251.19H85.95a6.75,6.75,0,0,1-6.75-6.75V156.19a6.75,6.75,0,0,1,6.75-6.75h26.24a6.75,6.75,0,0,1,6.75,6.75v88.25A6.75,6.75,0,0,1,112.19,251.19Z"/></svg>