<svg id="Layer_1" data-name="Layer 1" xmlns="http://www.w3.org/2000/svg" viewBox="0 0 841.89 595.28"><defs><style>.cls-1{fill:#f7931a;}.cls-2{fill:#fff;}.cls-3{fill:#4d4d4d;}</style></defs><title>bitcoin</title><g id="layer1"><g id="g97"><g id="g99"><g id="g101"><path id="path103" class="cls-1" d="M330.73,305.38a32,32,0,1,1-23.3-38.78A32,32,0,0,1,330.73,305.38Z"/><g id="g105"><g id="g107"><path id="path109" class="cls-2" d="M313.8,293.08c.64-4.26-2.6-6.55-7-8.07l1.44-5.77-3.51-.87-1.4,5.62c-.92-.23-1.87-.45-2.81-.66l1.41-5.65-3.51-.87-1.44,5.77-2.24-.53v0l-4.84-1.21-.93,3.75s2.61.6,2.55.63a1.87,1.87,0,0,1,1.64,2l-1.64,6.57a3,3,0,0,1,.37.12l-.37-.09-2.3,9.21a1.28,1.28,0,0,1-1.61.83c0,.05-2.55-.64-2.55-.64l-1.74,4,4.57,1.14,2.5.65-1.45,5.83,3.51.88,1.44-5.77c1,.26,1.89.5,2.8.73l-1.43,5.74,3.51.88,1.45-5.82c6,1.13,10.49.68,12.38-4.74,1.53-4.36-.08-6.87-3.23-8.52,2.29-.53,4-2,4.48-5.16Zm-8,11.25c-1.08,4.36-8.43,2-10.81,1.41L296.9,298C299.28,298.61,306.91,299.78,305.77,304.33ZM306.86,293c-1,4-7.1,2-9.08,1.46l1.75-7C301.51,288,307.89,288.88,306.86,293Z"/></g></g></g></g><g id="g111"><path id="path113" class="cls-3" d="M361.47,285a15.28,15.28,0,0,1,6.72,1.38,13.54,13.54,0,0,1,4.71,3.73,15.71,15.71,0,0,1,2.75,5.51,25.16,25.16,0,0,1,.89,6.8,27.7,27.7,0,0,1-7.69,19.24,26.49,26.49,0,0,1-8.42,5.83,25.72,25.72,0,0,1-10.52,2.15l-2.56,0a37.28,37.28,0,0,1-4.16-.36,49,49,0,0,1-5-1,24.89,24.89,0,0,1-5-1.78l14-58.88,12.55-1.94-5,20.89a19.43,19.43,0,0,1,3.24-1.13,14.34,14.34,0,0,1,3.48-.41Zm-10.53,34.67a11,11,0,0,0,5.34-1.38,14.07,14.07,0,0,0,4.34-3.68,18.6,18.6,0,0,0,2.87-5.23,17.8,17.8,0,0,0,1.05-6.08,12,12,0,0,0-1.3-6.07q-1.29-2.18-4.78-2.19a15,15,0,0,0-3,.4,7.36,7.36,0,0,0-3.28,1.71l-5.34,22.19.85.16a6.47,6.47,0,0,0,.76.12,8.73,8.73,0,0,0,1,0h1.45Z"/><path id="path115" class="cls-3" d="M389.55,328.5h-12l10.12-42.6h12.07Zm5.83-47.79a7.44,7.44,0,0,1-4.54-1.5,5.29,5.29,0,0,1-2-4.58,7.61,7.61,0,0,1,.69-3.2,8.56,8.56,0,0,1,1.83-2.59,9,9,0,0,1,2.63-1.74,8,8,0,0,1,3.2-.65,7.44,7.44,0,0,1,4.53,1.5,5.34,5.34,0,0,1,2,4.58,7.57,7.57,0,0,1-.69,3.2,8.44,8.44,0,0,1-1.82,2.59,8.82,8.82,0,0,1-2.63,1.74,7.9,7.9,0,0,1-3.2.64Z"/><path id="path117" class="cls-3" d="M410.26,275.29l12.56-1.95-3.08,12.56h13.44l-2.43,9.88H417.38l-3.56,14.9a16.83,16.83,0,0,0-.57,3.48,6.36,6.36,0,0,0,.4,2.8,3.52,3.52,0,0,0,1.74,1.82,8,8,0,0,0,3.6.65,19.17,19.17,0,0,0,3.77-.37,26.57,26.57,0,0,0,3.68-1l.89,9.24a43.19,43.19,0,0,1-5.26,1.54,30.33,30.33,0,0,1-6.72.65q-5.59,0-8.67-1.65a9.62,9.62,0,0,1-4.37-4.54,14.44,14.44,0,0,1-1.13-6.6,42.68,42.68,0,0,1,1.13-7.86Z"/><path id="path119" class="cls-3" d="M432.65,311.5a29.92,29.92,0,0,1,1.78-10.37,25.51,25.51,0,0,1,5.11-8.51,23.91,23.91,0,0,1,8.06-5.75,25.75,25.75,0,0,1,10.56-2.11,27.91,27.91,0,0,1,6.52.69,26.34,26.34,0,0,1,5.23,1.82l-4.13,9.4c-1.08-.44-2.2-.82-3.36-1.17a14.6,14.6,0,0,0-4.25-.53,11.88,11.88,0,0,0-9.52,4.13q-3.52,4.13-3.53,11.1a11.41,11.41,0,0,0,1.79,6.68c1.19,1.7,3.38,2.55,6.56,2.55a21.06,21.06,0,0,0,4.54-.48,22.4,22.4,0,0,0,3.89-1.21l.9,9.64a43.41,43.41,0,0,1-5,1.58,27.9,27.9,0,0,1-6.56.68,22.14,22.14,0,0,1-8.5-1.45,16.17,16.17,0,0,1-5.75-3.93,14.8,14.8,0,0,1-3.28-5.8,23.77,23.77,0,0,1-1-7Z"/><path id="path121" class="cls-3" d="M485.89,329.63a19.59,19.59,0,0,1-7.45-1.3,13.77,13.77,0,0,1-5.22-3.64,15.75,15.75,0,0,1-3.12-5.55,22.4,22.4,0,0,1-1-7.08,31.27,31.27,0,0,1,1.57-9.72,27.54,27.54,0,0,1,4.66-8.74,24.87,24.87,0,0,1,7.53-6.37,20.71,20.71,0,0,1,10.2-2.47,19.71,19.71,0,0,1,7.42,1.3,13.85,13.85,0,0,1,5.26,3.64,15.81,15.81,0,0,1,3.11,5.55,22.46,22.46,0,0,1,1.05,7.08,32.3,32.3,0,0,1-1.53,9.72,28.08,28.08,0,0,1-4.54,8.74,23.78,23.78,0,0,1-7.49,6.35,21.27,21.27,0,0,1-10.41,2.47Zm6-34.66a7.58,7.58,0,0,0-4.69,1.54,13.22,13.22,0,0,0-3.4,3.89,19.19,19.19,0,0,0-2.07,5.14,22.17,22.17,0,0,0-.68,5.3,12.91,12.91,0,0,0,1.29,6.32c.87,1.51,2.43,2.26,4.7,2.26a7.53,7.53,0,0,0,4.7-1.54,13.28,13.28,0,0,0,3.4-3.89,19.26,19.26,0,0,0,2.07-5.14,22.47,22.47,0,0,0,.68-5.3,12.82,12.82,0,0,0-1.3-6.32Q495.29,295,491.88,295Z"/><path id="path123" class="cls-3" d="M522.93,328.5h-12l10.12-42.6h12.08Zm5.82-47.79a7.43,7.43,0,0,1-4.53-1.5,5.31,5.31,0,0,1-2-4.58,7.6,7.6,0,0,1,.69-3.2,8.45,8.45,0,0,1,1.82-2.59,8.94,8.94,0,0,1,2.63-1.74,8,8,0,0,1,3.19-.65,7.44,7.44,0,0,1,4.54,1.5,5.34,5.34,0,0,1,2,4.58,7.68,7.68,0,0,1-.69,3.2,8.41,8.41,0,0,1-1.82,2.59,8.91,8.91,0,0,1-2.63,1.74A7.93,7.93,0,0,1,528.75,280.71Z"/><path id="path125" class="cls-3" d="M541.76,287.84c.91-.27,1.93-.59,3-.93s2.35-.67,3.73-1a44.62,44.62,0,0,1,4.61-.73,51.78,51.78,0,0,1,5.79-.29q9.48,0,13.09,5.51t1.26,15.06l-5.51,23H555.69L561,306c.33-1.41.58-2.77.77-4.09a9.68,9.68,0,0,0,0-3.48,4.17,4.17,0,0,0-1.49-2.43,5.8,5.8,0,0,0-3.61-.93,24.35,24.35,0,0,0-4.78.49l-7.86,33H532l9.8-40.66Z"/></g></g></g></svg>