<svg id="katman_1" data-name="katman 1" xmlns="http://www.w3.org/2000/svg" xmlns:xlink="http://www.w3.org/1999/xlink" viewBox="0 0 512 512"><defs><style>.cls-1{fill:url(#Adsız_degrade);}.cls-2{fill:#83b2db;}.cls-3{fill:#e8edfc;}.cls-4{fill:#cad9fc;}.cls-5{fill:#fff;}.cls-6{fill:#1a324c;}</style><linearGradient id="Adsız_degrade" x1="-509.14" y1="640.58" x2="-507.87" y2="639.85" gradientTransform="matrix(256, 0, 0, -443.73, 130313.54, 284340.21)" gradientUnits="userSpaceOnUse"><stop offset="0" stop-color="#d3dff2"/><stop offset="0.17" stop-color="#d3dff2"/><stop offset="0.2" stop-color="#d3dff2"/><stop offset="0.2" stop-color="#dae2f2"/><stop offset="0.2" stop-color="#ebeaf2"/><stop offset="0.2" stop-color="#f6eff2"/><stop offset="0.2" stop-color="#fdf2f2"/><stop offset="0.2" stop-color="#fff3f2"/><stop offset="0.25" stop-color="#fff3f2"/><stop offset="0.26" stop-color="#fff3f2"/><stop offset="0.26" stop-color="#d3dff2"/><stop offset="0.4" stop-color="#d3dff2"/><stop offset="0.42" stop-color="#d3dff2"/><stop offset="0.42" stop-color="#dae2f2"/><stop offset="0.42" stop-color="#ebeaf2"/><stop offset="0.42" stop-color="#f6eff2"/><stop offset="0.42" stop-color="#fdf2f2"/><stop offset="0.42" stop-color="#fff3f2"/><stop offset="0.49" stop-color="#fff3f2"/><stop offset="0.5" stop-color="#fff3f2"/><stop offset="0.5" stop-color="#f8f0f2"/><stop offset="0.5" stop-color="#e7e8f2"/><stop offset="0.5" stop-color="#dce3f2"/><stop offset="0.5" stop-color="#d5e0f2"/><stop offset="0.5" stop-color="#d3dff2"/><stop offset="0.71" stop-color="#d3dff2"/><stop offset="0.74" stop-color="#d3dff2"/><stop offset="0.74" stop-color="#fff3f2"/><stop offset="0.83" stop-color="#fff3f2"/><stop offset="0.85" stop-color="#fff3f2"/><stop offset="0.85" stop-color="#d3dff2"/></linearGradient></defs><title>eft</title><g id="Page-1"><g id="_086---Cash-Transfer" data-name="086---Cash-Transfer"><path id="Shape" class="cls-1" d="M264.53,76.8V435.2a42.67,42.67,0,0,1-42.67,42.67H51.2A42.67,42.67,0,0,1,8.53,435.2V76.8A42.67,42.67,0,0,1,51.2,34.13L77.74,73.9A25.54,25.54,0,0,0,99.07,85.33H174A25.54,25.54,0,0,0,195.33,73.9l26.54-39.77A42.67,42.67,0,0,1,264.53,76.8Z"/><path id="Shape-2" data-name="Shape" class="cls-2" d="M221.87,34.13l-4,6.05a42.5,42.5,0,0,1,21.1,36.62V435.2a42.67,42.67,0,0,1-42.67,42.67h25.6a42.67,42.67,0,0,0,42.67-42.67V76.8a42.67,42.67,0,0,0-42.67-42.67Z"/><path id="Shape-3" data-name="Shape" class="cls-3" d="M221.87,34.13,195.33,73.9A25.54,25.54,0,0,1,174,85.33H99.07A25.54,25.54,0,0,1,77.74,73.9L51.2,34.13Z"/><path id="Shape-4" data-name="Shape" class="cls-4" d="M196.27,34.13,169.73,73.9a25.54,25.54,0,0,1-21.33,11.43H174A25.54,25.54,0,0,0,195.33,73.9l26.54-39.77Z"/><path id="Shape-5" data-name="Shape" class="cls-3" d="M384,179.2H494.93a8.53,8.53,0,0,1,8.53,8.53V324.27a8.53,8.53,0,0,1-8.53,8.53H384V384a8.53,8.53,0,0,1-14.59,6.06l-128-128a8.6,8.6,0,0,1,0-12.12l128-128A8.53,8.53,0,0,1,384,128Z"/><path id="Shape-6" data-name="Shape" class="cls-4" d="M358.4,179.2H384V128a8.53,8.53,0,0,0-14.6-6.06l-11,11Z"/><path id="Shape-7" data-name="Shape" class="cls-2" d="M494.93,179.2h-25.6a8.53,8.53,0,0,1,8.53,8.53V324.27a8.53,8.53,0,0,1-8.53,8.53h25.6a8.53,8.53,0,0,0,8.53-8.53V187.73A8.53,8.53,0,0,0,494.93,179.2Z"/><path id="Shape-8" data-name="Shape" class="cls-4" d="M358.4,379.05l11,11A8.53,8.53,0,0,0,384,384V332.8H358.4Z"/><path id="Shape-9" data-name="Shape" class="cls-5" d="M76.8,477.87A42.67,42.67,0,0,1,34.13,435.2V76.8A42.67,42.67,0,0,1,76.8,34.13H51.2A42.67,42.67,0,0,0,8.53,76.8V435.2A42.67,42.67,0,0,0,51.2,477.87Z"/><path id="Rectangle-path" class="cls-5" d="M0,366.93H17.07V435.2H0Z"/><path id="Shape-10" data-name="Shape" class="cls-6" d="M8.53,145.07a8.53,8.53,0,0,0,8.53-8.53V76.8A34.07,34.07,0,0,1,46.93,43.1l23.7,35.57A34.07,34.07,0,0,0,99,93.87h75.05a34.07,34.07,0,0,0,28.4-15.2L226.13,43.1A34.07,34.07,0,0,1,256,76.8V179.2a8.53,8.53,0,0,0,17.07,0V76.8a51.25,51.25,0,0,0-51.2-51.2H51.2A51.25,51.25,0,0,0,0,76.8v59.73A8.53,8.53,0,0,0,8.53,145.07ZM205.93,42.67,188.24,69.2a17.07,17.07,0,0,1-14.16,7.6h-75a17.07,17.07,0,0,1-14.2-7.6L67.14,42.67Z"/><path id="Shape-11" data-name="Shape" class="cls-6" d="M8.53,375.47a8.53,8.53,0,0,0,8.53-8.53V179.2A8.53,8.53,0,1,0,0,179.2V366.93A8.53,8.53,0,0,0,8.53,375.47Z"/><circle id="Oval" class="cls-6" cx="8.53" cy="401.07" r="8.53"/><path id="Shape-12" data-name="Shape" class="cls-6" d="M221.87,486.4a51.25,51.25,0,0,0,51.2-51.2V332.8a8.53,8.53,0,1,0-17.07,0V435.2a34.13,34.13,0,0,1-34.13,34.13H51.2A34.13,34.13,0,0,1,17.07,435.2,8.53,8.53,0,1,0,0,435.2a51.25,51.25,0,0,0,51.2,51.2Z"/><path id="Shape-13" data-name="Shape" class="cls-6" d="M51.2,435.2a8.53,8.53,0,0,0,8.53,8.53h153.6a8.53,8.53,0,0,0,0-17.07H59.73A8.53,8.53,0,0,0,51.2,435.2Z"/><path id="Shape-14" data-name="Shape" class="cls-6" d="M494.93,170.67H392.53V128a17.07,17.07,0,0,0-29.16-12.09l-128,128a17.12,17.12,0,0,0,0,24.19l128,128a17,17,0,0,0,12.09,5,17.37,17.37,0,0,0,6.56-1.31A17.07,17.07,0,0,0,392.53,384V341.33h102.4A17.07,17.07,0,0,0,512,324.27V187.73A17.07,17.07,0,0,0,494.93,170.67Zm0,153.6H384a8.53,8.53,0,0,0-8.53,8.53V384l-128-128,128-128v51.2a8.53,8.53,0,0,0,8.53,8.53H494.93Z"/><path id="Shape-15" data-name="Shape" class="cls-6" d="M85.33,302.93a8.53,8.53,0,0,0-17.07,0c0,28.23,26.11,51.56,59.73,55v9a8.53,8.53,0,1,0,17.07,0v-9c33.62-3.41,59.73-26.76,59.73-55s-26.11-51.56-59.73-55v-76.7c24.17,3.05,42.67,18.83,42.67,37.82a8.53,8.53,0,0,0,17.07,0c0-28.23-26.11-51.56-59.73-55v-9a8.53,8.53,0,0,0-17.07,0v9c-33.62,3.41-59.73,26.76-59.73,55s26.11,51.56,59.73,55v76.7C103.83,337.7,85.33,321.92,85.33,302.93Zm102.4,0c0,19-18.49,34.76-42.67,37.82V265.11C169.24,268.17,187.73,283.95,187.73,302.93ZM85.33,209.07c0-19,18.49-34.76,42.67-37.82v75.64C103.83,243.83,85.33,228.05,85.33,209.07Z"/></g></g></svg>