<svg id="Layer_1" data-name="Layer 1" xmlns="http://www.w3.org/2000/svg" viewBox="0 0 612 792"><defs><style>.cls-1{fill:none;}.cls-2{fill:#ed1b2e;}.cls-3{fill:#fcb131;}.cls-4{fill:#003473;}.cls-5{fill:#fff;}</style></defs><title>mastercard</title><rect class="cls-1" x="196.58" y="315.04" width="230.16" height="172.32"/><circle class="cls-2" cx="282.74" cy="401.2" r="43.08"/><path class="cls-3" d="M340.58,358.12a42.93,42.93,0,0,0-28.92,11.15,44,44,0,0,0-4.35,4.56H316a44,44,0,0,1,3.29,4.56H304a43.38,43.38,0,0,0-2.48,4.56h20.24a43,43,0,0,1,1.82,4.56H299.72a42.65,42.65,0,0,0-1.25,4.56h26.39a43.37,43.37,0,0,1-1.25,22.81H299.72a43.24,43.24,0,0,0,1.82,4.56h20.24a43,43,0,0,1-2.48,4.56H304a43.36,43.36,0,0,0,3.29,4.56H316a43.07,43.07,0,0,1-4.35,4.56,43.08,43.08,0,1,0,28.92-75Z"/><path class="cls-3" d="M377.92,425.22a1.39,1.39,0,1,1,1.39,1.39A1.39,1.39,0,0,1,377.92,425.22Zm1.39,1.06a1.06,1.06,0,1,0-1.06-1.06A1.06,1.06,0,0,0,379.31,426.28Zm-.19-.45h-.29v-1.22h.52a.58.58,0,0,1,.31.06.37.37,0,0,1,.15.31.33.33,0,0,1-.21.32l.23.54h-.32l-.19-.48h-.21Zm0-.69h.16a.37.37,0,0,0,.17,0,.17.17,0,0,0,.07-.14.16.16,0,0,0-.07-.12.39.39,0,0,0-.18,0h-.15Z"/><path class="cls-4" d="M272.68,405.92a7.92,7.92,0,0,0-1-.07c-2.65,0-4,.91-4,2.71a1.63,1.63,0,0,0,1.68,1.81C271.23,410.36,272.6,408.55,272.68,405.92Zm3.4,7.92h-3.88l.09-1.84a5.87,5.87,0,0,1-4.9,2.15c-2.53,0-4.27-2-4.27-4.85,0-4.33,3-6.85,8.21-6.85a16,16,0,0,1,1.91.14,4.38,4.38,0,0,0,.18-1.15c0-1.18-.81-1.62-3-1.62a15.61,15.61,0,0,0-5,.8l.65-4a18.58,18.58,0,0,1,5.6-.94c4,0,6.14,1.8,6.14,5.21a22.76,22.76,0,0,1-.38,3.52C277.07,407,276.2,412.5,276.08,413.84Z"/><polygon class="cls-4" points="261.16 413.84 256.49 413.84 259.17 397.04 253.18 413.84 250 413.84 249.6 397.14 246.79 413.84 242.41 413.84 246.06 391.99 252.79 391.99 253.2 404.22 257.3 391.99 264.78 391.99 261.16 413.84"/><path class="cls-4" d="M346.36,405.92a7.89,7.89,0,0,0-1-.07c-2.65,0-4,.91-4,2.71a1.63,1.63,0,0,0,1.68,1.81C344.9,410.36,346.28,408.55,346.36,405.92Zm3.4,7.92h-3.87L346,412a5.87,5.87,0,0,1-4.9,2.15c-2.54,0-4.27-2-4.27-4.85,0-4.33,3-6.85,8.21-6.85a16,16,0,0,1,1.91.14,4.37,4.37,0,0,0,.18-1.15c0-1.18-.81-1.62-3-1.62a15.64,15.64,0,0,0-5,.8c.05-.29.65-4,.65-4a18.56,18.56,0,0,1,5.59-.94c4,0,6.14,1.8,6.14,5.21a22.66,22.66,0,0,1-.38,3.52C350.75,407,349.88,412.5,349.76,413.84Z"/><path class="cls-4" d="M296.87,413.57a10.7,10.7,0,0,1-3.36.58c-2.39,0-3.7-1.37-3.7-3.9a41.08,41.08,0,0,1,.64-4.74c.27-1.66,2-12.13,2-12.13h4.65l-.54,2.69h2.81l-.63,4.27h-2.82c-.54,3.38-1.31,7.59-1.32,8.15,0,.92.49,1.32,1.6,1.32a3.8,3.8,0,0,0,1.26-.17Z"/><path class="cls-4" d="M311.12,413.42a15.8,15.8,0,0,1-4.77.72c-5.21,0-7.92-2.72-7.92-7.93,0-6.07,3.45-10.55,8.14-10.55,3.83,0,6.28,2.5,6.28,6.43a19,19,0,0,1-.57,4.37H303c-.31,2.58,1.34,3.65,4,3.65a11,11,0,0,0,4.83-1.12Zm-2.61-10.54c0-.37.49-3.17-2.16-3.17-1.48,0-2.54,1.13-3,3.17Z"/><path class="cls-4" d="M278.89,401.69c0,2.25,1.09,3.8,3.56,5,1.89.89,2.19,1.15,2.19,2,0,1.11-.84,1.61-2.69,1.61a13.13,13.13,0,0,1-4.19-.7l-.64,4.11a21.72,21.72,0,0,0,4.87.53c4.93,0,7.21-1.88,7.21-5.94,0-2.44-1-3.87-3.3-5-2-.9-2.19-1.1-2.19-1.93s.78-1.45,2.29-1.45a25.87,25.87,0,0,1,3.36.27L290,396a31.45,31.45,0,0,0-4.12-.35C280.68,395.67,278.87,398.4,278.89,401.69Z"/><path class="cls-4" d="M333.87,396.14a8.9,8.9,0,0,1,4.18,1.18l.77-4.74c-.69-.27-3.1-1.85-5.14-1.85a9.31,9.31,0,0,0-7.64,4.12c-2.71-.9-3.83.92-5.2,2.73l-1.21.28a9,9,0,0,0,.15-1.79h-4.3c-.59,5.5-1.62,11.07-2.44,16.58l-.21,1.2h4.68c.78-5.07,1.21-8.32,1.47-10.52l1.76-1c.26-1,1.09-1.31,2.74-1.27a20,20,0,0,0-.33,3.64c0,5.81,3.14,9.43,8.17,9.43a14.62,14.62,0,0,0,4.13-.64l.82-5a9.1,9.1,0,0,1-4,1.12c-2.72,0-4.36-2-4.36-5.32C327.93,399.51,330.38,396.14,333.87,396.14Z"/><path class="cls-4" d="M373.46,392l-1,6.31c-1.28-1.68-2.65-2.9-4.46-2.9-2.36,0-4.51,1.79-5.91,4.42a38.36,38.36,0,0,1-4-1.1v0a26.28,26.28,0,0,0,.21-2.68H354c-.58,5.5-1.62,11.07-2.44,16.58l-.21,1.2H356c.63-4.1,1.12-7.51,1.47-10.21,1.6-1.45,2.4-2.7,4-2.62a15.24,15.24,0,0,0-1.13,5.77c0,4.44,2.25,7.37,5.65,7.37a5.51,5.51,0,0,0,4.31-2l-.22,1.65h4.43L378.08,392Zm-5.85,17.75c-1.59,0-2.4-1.18-2.4-3.5,0-3.49,1.51-6,3.63-6,1.61,0,2.48,1.22,2.48,3.48C371.32,407.26,369.79,409.73,367.62,409.73Z"/><polygon class="cls-5" points="262.51 412.54 257.83 412.54 260.51 395.75 254.53 412.54 251.34 412.54 250.95 395.84 248.13 412.54 243.75 412.54 247.41 390.69 254.14 390.69 254.32 404.22 258.86 390.69 266.13 390.69 262.51 412.54"/><path class="cls-5" d="M274,404.63a7.85,7.85,0,0,0-1-.07c-2.65,0-4,.91-4,2.7a1.63,1.63,0,0,0,1.68,1.81C272.57,409.07,273.95,407.25,274,404.63Zm3.4,7.92h-3.87l.09-1.84a5.88,5.88,0,0,1-4.9,2.15c-2.54,0-4.27-2-4.27-4.86,0-4.33,3-6.85,8.21-6.85a15.63,15.63,0,0,1,1.91.14,4.4,4.4,0,0,0,.18-1.16c0-1.18-.81-1.61-3-1.61a15.53,15.53,0,0,0-5,.8c0-.29.65-4,.65-4a18.64,18.64,0,0,1,5.6-.94c4,0,6.14,1.8,6.14,5.21a22.73,22.73,0,0,1-.38,3.52C278.42,405.68,277.55,411.2,277.43,412.54Z"/><path class="cls-5" d="M340.16,391.28l-.77,4.74a8.93,8.93,0,0,0-4.18-1.18c-3.49,0-5.94,3.37-5.94,8.19,0,3.32,1.65,5.32,4.37,5.32a9,9,0,0,0,4-1.12l-.82,5a14.61,14.61,0,0,1-4.13.64c-5,0-8.17-3.62-8.17-9.43,0-7.81,4.34-13.27,10.53-13.27A16.18,16.18,0,0,1,340.16,391.28Z"/><path class="cls-5" d="M347.7,404.63a7.8,7.8,0,0,0-1-.07c-2.65,0-4,.91-4,2.7a1.63,1.63,0,0,0,1.68,1.81C346.25,409.07,347.63,407.25,347.7,404.63Zm3.4,7.92h-3.87l.09-1.84a5.87,5.87,0,0,1-4.9,2.15c-2.54,0-4.27-2-4.27-4.86,0-4.33,3-6.85,8.21-6.85a15.57,15.57,0,0,1,1.9.14,4.41,4.41,0,0,0,.18-1.16c0-1.18-.81-1.61-3-1.61a15.55,15.55,0,0,0-5,.8l.65-4a18.65,18.65,0,0,1,5.6-.94c4,0,6.14,1.8,6.14,5.21a22.57,22.57,0,0,1-.38,3.52C352.1,405.68,351.23,411.2,351.11,412.54Z"/><path class="cls-5" d="M298.21,412.27a10.7,10.7,0,0,1-3.36.58c-2.39,0-3.7-1.37-3.7-3.9a41.11,41.11,0,0,1,.64-4.74c.27-1.66,2-12.13,2-12.13h4.65l-.54,2.69h2.39l-.63,4.27h-2.39c-.54,3.38-1.31,7.59-1.32,8.15,0,.92.49,1.32,1.6,1.32a3.75,3.75,0,0,0,1.26-.17Z"/><path class="cls-5" d="M312.47,412.13a15.94,15.94,0,0,1-4.77.72c-5.21,0-7.92-2.72-7.92-7.93,0-6.08,3.45-10.55,8.13-10.55,3.84,0,6.28,2.5,6.28,6.43a19.22,19.22,0,0,1-.57,4.37h-9.26c-.31,2.58,1.34,3.65,4,3.65a11,11,0,0,0,4.84-1.12Zm-2.61-10.54c0-.37.49-3.17-2.16-3.17-1.48,0-2.54,1.13-3,3.17Z"/><path class="cls-5" d="M280.23,400.39c0,2.25,1.09,3.8,3.56,5,1.89.89,2.19,1.15,2.19,2,0,1.11-.83,1.61-2.69,1.61a13.19,13.19,0,0,1-4.19-.7l-.64,4.1a21.66,21.66,0,0,0,4.87.53c4.94,0,7.21-1.88,7.21-5.94,0-2.44-1-3.87-3.3-5-2-.9-2.19-1.1-2.19-1.93s.78-1.46,2.29-1.46a25.92,25.92,0,0,1,3.36.27l.67-4.12a31.82,31.82,0,0,0-4.12-.35C282,394.37,280.22,397.11,280.23,400.39Z"/><path class="cls-5" d="M375.86,412.54h-4.42l.22-1.65a5.51,5.51,0,0,1-4.31,2c-3.4,0-5.65-2.93-5.65-7.37,0-5.91,3.49-10.89,7.61-10.89a5.28,5.28,0,0,1,4.47,2.42l1-6.32h4.61Zm-6.9-4.11c2.18,0,3.71-2.47,3.71-6,0-2.26-.87-3.48-2.48-3.48-2.12,0-3.63,2.48-3.63,6C366.56,407.26,367.37,408.44,369,408.44Z"/><path class="cls-5" d="M355.32,394.77c-.59,5.5-1.62,11.07-2.44,16.57l-.21,1.2h4.68c1.67-10.87,2.08-13,4.7-12.72a17.44,17.44,0,0,1,1.78-5.15c-2-.41-3.05.7-4.49,2.8a16.27,16.27,0,0,0,.28-2.7Z"/><path class="cls-5" d="M316.82,394.77c-.59,5.5-1.63,11.07-2.44,16.57l-.21,1.2h4.68c1.67-10.87,2.08-13,4.7-12.72a17.55,17.55,0,0,1,1.78-5.15c-2-.41-3.05.7-4.48,2.8a16,16,0,0,0,.28-2.7Z"/><path class="cls-5" d="M377.92,411.15a1.39,1.39,0,1,1,1.39,1.39A1.39,1.39,0,0,1,377.92,411.15Zm1.39,1.06a1.06,1.06,0,1,0-1.06-1.06A1.06,1.06,0,0,0,379.31,412.21Zm-.19-.45h-.29v-1.22h.52a.57.57,0,0,1,.31.06.36.36,0,0,1,.16.3.33.33,0,0,1-.21.32l.22.54h-.32l-.19-.48h-.21Zm0-.69h.16a.35.35,0,0,0,.17,0,.17.17,0,0,0,.07-.14.16.16,0,0,0-.07-.13.41.41,0,0,0-.18,0h-.15Z"/></svg>