<svg id="Layer_1" data-name="Layer 1" xmlns="http://www.w3.org/2000/svg" viewBox="0 0 141.73 141.73"><defs><style>.cls-1{fill:#0066b3;}.cls-2{fill:#faa634;}.cls-3{fill:none;}</style></defs><title>visa</title><polygon class="cls-1" points="62.94 89.57 53.2 89.57 59.28 52.19 69.02 52.19 62.94 89.57"/><path class="cls-1" d="M45,52.19,35.73,77.9l-1.1-5.54h0L31.36,55.55s-.4-3.37-4.62-3.37H11.41l-.18.63a36.35,36.35,0,0,1,10.18,4.27l8.46,32.48H40L55.49,52.19Z"/><path class="cls-1" d="M121.57,89.57h8.94l-7.79-37.38h-7.83A4.47,4.47,0,0,0,110.4,55L95.88,89.57H106l2-5.55h12.37ZM110.86,76.35l5.11-14,2.88,14Z"/><path class="cls-1" d="M96.64,61.18l1.39-8a28.1,28.1,0,0,0-8.75-1.63c-4.83,0-16.3,2.11-16.3,12.38,0,9.66,13.46,9.78,13.46,14.85s-12.07,4.16-16.06,1L68.93,88.1a27.26,27.26,0,0,0,11,2.11c6.64,0,16.66-3.44,16.66-12.8C96.58,67.7,83,66.79,83,62.57S92.48,58.88,96.64,61.18Z"/><path class="cls-2" d="M34.64,72.36,31.36,55.55s-.4-3.37-4.62-3.37H11.41l-.18.63a37.73,37.73,0,0,1,14.45,7.25A29.16,29.16,0,0,1,34.64,72.36Z"/><rect class="cls-3" width="141.73" height="141.73"/></svg>