<svg id="Capa_1" data-name="Capa 1" xmlns="http://www.w3.org/2000/svg" viewBox="0 0 512 512"><defs><style>.cls-1{fill:#38b2a3;}</style></defs><title>form</title><path class="cls-1" d="M430.67,409.9a7.5,7.5,0,0,0-10.54,1.16L394.51,443,383,428.43a7.5,7.5,0,1,0-11.78,9.28l17.31,22a7.5,7.5,0,0,0,5.86,2.86h0a7.5,7.5,0,0,0,5.85-2.81l31.52-39.29a7.5,7.5,0,0,0-1.16-10.54Z"/><path class="cls-1" d="M421.84,361.54V29a29,29,0,0,0-29-29H121.76a7.5,7.5,0,1,0,0,15h20.68V36.6H88A18.48,18.48,0,0,0,69.54,55.06V456.94A18.48,18.48,0,0,0,88,475.4H336.26A77.19,77.19,0,0,0,356.09,497H62.85a14,14,0,0,1-14-14V29a14,14,0,0,1,14-14H87.16a7.5,7.5,0,0,0,0-15H62.85a29,29,0,0,0-29,29V483a29,29,0,0,0,29,29H401.56a76.6,76.6,0,0,0,20.28-150.46ZM313.24,15h79.59a14,14,0,0,1,14,14V359c-1.75-.12-3.51-.2-5.29-.2a77.4,77.4,0,0,0-15.42,1.54V55.06A18.48,18.48,0,0,0,367.68,36.6H313.24Zm-155.8,0h140.8V36.6H157.44Zm0,36.6h140.8V65.66a4.89,4.89,0,0,1-4.88,4.88h-131a4.89,4.89,0,0,1-4.88-4.88ZM401.56,497a61.64,61.64,0,0,1-56.7-85.74,7.5,7.5,0,0,0-13.8-5.88,76.59,76.59,0,0,0-1.89,55H88a3.46,3.46,0,0,1-3.46-3.46V55.06A3.46,3.46,0,0,1,88,51.6h54.44V65.67a19.9,19.9,0,0,0,19.88,19.88h131a19.9,19.9,0,0,0,19.88-19.88V51.6h54.44a3.46,3.46,0,0,1,3.46,3.46V365a76.66,76.66,0,0,0-16.19,9.55,7.5,7.5,0,0,0,9.13,11.9,61,61,0,0,1,37.48-12.71,61.61,61.61,0,0,1,0,123.21Z"/><path class="cls-1" d="M334.81,344.86H120.87a7.5,7.5,0,1,0,0,15H334.81a7.5,7.5,0,0,0,0-15Z"/><path class="cls-1" d="M291.83,376.45h-171a7.5,7.5,0,1,0,0,15h171a7.5,7.5,0,1,0,0-15Z"/><path class="cls-1" d="M276.85,408.51h-156a7.5,7.5,0,1,0,0,15h156a7.5,7.5,0,1,0,0-15Z"/><path class="cls-1" d="M130.06,240.21v61.32a20,20,0,0,0,20,20H305.65a20,20,0,0,0,20-20V240.21a15.5,15.5,0,0,0,8.61-13.86V170a15.52,15.52,0,0,0-15.5-15.5H269.46V144.28a21.86,21.86,0,0,0-21.84-21.84H208.06a21.86,21.86,0,0,0-21.84,21.84v10.25H136.95a15.52,15.52,0,0,0-15.5,15.5v56.32a15.5,15.5,0,0,0,8.61,13.86Zm180.57,61.32a5,5,0,0,1-5,5H150a5,5,0,0,1-5-5V241.85h49.34v4.45a13.39,13.39,0,0,0,13.37,13.37H254.5a13.39,13.39,0,0,0,13.37-13.37v-4.45h42.76ZM209.39,244.67V222.75h43.48v21.91Zm-8.17-100.39a6.85,6.85,0,0,1,6.84-6.84h39.56a6.85,6.85,0,0,1,6.84,6.84v10.25H201.21V144.28ZM136.45,170a.5.5,0,0,1,.5-.5H318.73a.5.5,0,0,1,.5.5v56.32a.5.5,0,0,1-.5.5H267.87v-5.72a13.39,13.39,0,0,0-13.37-13.37H207.76a13.39,13.39,0,0,0-13.37,13.37v5.72H136.95a.5.5,0,0,1-.5-.5Z"/></svg>