<svg id="katman_1" data-name="katman 1" xmlns="http://www.w3.org/2000/svg" viewBox="0 0 512 512"><defs><style>.cls-1{fill:#e8edfc;}.cls-2{fill:#cad9fc;}.cls-3{fill:#afd4ef;}.cls-4{fill:#83b2db;}.cls-5{fill:#fff;}.cls-6{fill:#1a324c;}</style></defs><title>havale</title><g id="Page-1"><g id="_023---Laptop" data-name="023---Laptop"><path id="Shape" class="cls-1" d="M503.47,452.27v17.07a34.13,34.13,0,0,1-34.13,34.13H42.67A34.13,34.13,0,0,1,8.53,469.33V452.27a8.53,8.53,0,0,1,8.53-8.53h153.6a8.81,8.81,0,0,1,6.06,2.47l9.56,9.56a16.78,16.78,0,0,0,12,5H313.6a17.17,17.17,0,0,0,12.2-5l9.47-9.56a8.82,8.82,0,0,1,6.06-2.47h153.6A8.53,8.53,0,0,1,503.47,452.27Z"/><path id="Shape-2" data-name="Shape" class="cls-2" d="M494.93,443.73h-25.6a8.53,8.53,0,0,1,8.53,8.53v17.07a34.13,34.13,0,0,1-34.13,34.13h25.6a34.13,34.13,0,0,0,34.13-34.13V452.27A8.53,8.53,0,0,0,494.93,443.73Z"/><path id="Shape-3" data-name="Shape" class="cls-3" d="M477.87,145.07V443.73h-51.2V136.53h42.67A8.53,8.53,0,0,1,477.87,145.07Z"/><path id="Shape-4" data-name="Shape" class="cls-4" d="M469.33,136.53h-25.6a8.53,8.53,0,0,1,8.53,8.53V443.73h25.6V145.07A8.53,8.53,0,0,0,469.33,136.53Z"/><path id="Shape-5" data-name="Shape" class="cls-3" d="M85.33,136.53v307.2H34.13V145.07a8.53,8.53,0,0,1,8.53-8.53Z"/><path id="Shape-6" data-name="Shape" class="cls-1" d="M426.67,25.6V443.73H341.33a8.81,8.81,0,0,0-6.06,2.47l-9.47,9.56a17.17,17.17,0,0,1-12.2,5H198.31a16.78,16.78,0,0,1-12-5l-9.56-9.56a8.81,8.81,0,0,0-6.06-2.47H85.33V25.6A17.12,17.12,0,0,1,102.4,8.53H409.6A17.12,17.12,0,0,1,426.67,25.6Z"/><path id="Shape-7" data-name="Shape" class="cls-2" d="M409.6,8.53H384A17.12,17.12,0,0,1,401.07,25.6V443.73h25.6V25.6A17.12,17.12,0,0,0,409.6,8.53Z"/><path id="Shape-8" data-name="Shape" class="cls-1" d="M366.93,298.67a111,111,0,1,1-51.2-93.44,111,111,0,0,1,51.2,93.44Z"/><path id="Shape-9" data-name="Shape" class="cls-2" d="M315.73,205.23A109.93,109.93,0,0,0,256,187.73a111.2,111.2,0,0,0-12.8.8,110.87,110.87,0,0,1,0,220.27,110.88,110.88,0,0,0,72.53-203.58Z"/><path id="Shape-10" data-name="Shape" class="cls-3" d="M332.8,136.53H315.73v68.69a110.73,110.73,0,0,0-119.47,0V136.53H179.2a8.53,8.53,0,0,1-6.06-14.59l76.8-76.8a8.6,8.6,0,0,1,12.12,0l76.8,76.8a8.53,8.53,0,0,1-6.06,14.59Z"/><path id="Shape-11" data-name="Shape" class="cls-4" d="M338.86,121.94l-76.8-76.8a8.6,8.6,0,0,0-12.12,0l-6.74,6.74,70.06,70.06a8.53,8.53,0,0,1-6.06,14.59H290.13v56.62a109.94,109.94,0,0,1,25.6,12.07V136.53H332.8a8.53,8.53,0,0,0,6.06-14.59Z"/><path id="Shape-12" data-name="Shape" class="cls-5" d="M42.67,503.47h25.6a34.13,34.13,0,0,1-34.13-34.13V452.27a8.53,8.53,0,0,1,8.53-8.53H59.73V145.07a8.53,8.53,0,0,1,8.53-8.53H42.67a8.53,8.53,0,0,0-8.53,8.53V443.73H17.07a8.53,8.53,0,0,0-8.53,8.53v17.07A34.13,34.13,0,0,0,42.67,503.47Z"/><path id="Rectangle-path" class="cls-5" d="M25.6,375.47H42.67v68.27H25.6Z"/><path id="Shape-13" data-name="Shape" class="cls-6" d="M34.13,384a8.53,8.53,0,0,0,8.53-8.53V238.93a8.53,8.53,0,1,0-17.07,0V375.47A8.53,8.53,0,0,0,34.13,384Z"/><circle id="Oval" class="cls-6" cx="34.13" cy="409.6" r="8.53"/><path id="Shape-14" data-name="Shape" class="cls-6" d="M494.93,435.2H486.4V145.07A17.07,17.07,0,0,0,469.33,128H435.2V25.6A25.6,25.6,0,0,0,409.6,0H102.4A25.6,25.6,0,0,0,76.8,25.6V128H42.67A17.07,17.07,0,0,0,25.6,145.07v51.2a8.53,8.53,0,1,0,17.07,0v-51.2H76.8V392.53a8.53,8.53,0,1,0,17.07,0V25.6a8.53,8.53,0,0,1,8.53-8.53H409.6a8.53,8.53,0,0,1,8.53,8.53V392.53a8.53,8.53,0,0,0,17.07,0V145.07h34.13V435.2h-128a17,17,0,0,0-12.07,5l-9.53,9.51a8.6,8.6,0,0,1-6.13,2.56H198.35a8.53,8.53,0,0,1-6.06-2.51l-9.56-9.56a17,17,0,0,0-12.07-5H17.07A17.07,17.07,0,0,0,0,452.27v17.07A42.72,42.72,0,0,0,42.67,512H469.33A42.72,42.72,0,0,0,512,469.33V452.27A17.07,17.07,0,0,0,494.93,435.2Zm0,34.13a25.6,25.6,0,0,1-25.6,25.6H42.67a25.6,25.6,0,0,1-25.6-25.6V452.27h25.6v17.07a8.53,8.53,0,1,0,17.07,0V452.27H76.8v17.07a8.53,8.53,0,1,0,17.07,0V452.27h76.8l9.56,9.56a25.45,25.45,0,0,0,18.12,7.51H313.61a25.6,25.6,0,0,0,18.19-7.53l9.53-9.53h153.6Z"/><path id="Shape-15" data-name="Shape" class="cls-6" d="M153.6,34.13H119.47a8.53,8.53,0,0,0-8.53,8.53V76.8a8.53,8.53,0,0,0,17.07,0V51.2h25.6a8.53,8.53,0,1,0,0-17.07Z"/><path id="Shape-16" data-name="Shape" class="cls-6" d="M136.53,298.67a119.47,119.47,0,1,0,187.73-97.9v-55.7h8.53a17.07,17.07,0,0,0,12.09-29.16l-76.8-76.8a17.13,17.13,0,0,0-24.18,0l-76.8,76.8a17.07,17.07,0,0,0,12.09,29.16h8.53v55.7a119.35,119.35,0,0,0-51.2,97.9Zm221.87,0A102.4,102.4,0,1,1,256,196.27,102.4,102.4,0,0,1,358.4,298.67ZM196.27,128H179.2L256,51.2,332.8,128H315.73a8.53,8.53,0,0,0-8.53,8.53v54.36a118,118,0,0,0-102.4,0V136.53A8.53,8.53,0,0,0,196.27,128Z"/><path id="Shape-17" data-name="Shape" class="cls-6" d="M247.47,230.4v.78a39.72,39.72,0,0,0-34.13,37.62,39.72,39.72,0,0,0,34.13,37.62v42.13a22,22,0,0,1-17.07-20,8.53,8.53,0,1,0-17.07,0,39.72,39.72,0,0,0,34.13,37.62v.78a8.53,8.53,0,0,0,17.07,0v-.78a39.72,39.72,0,0,0,34.13-37.62,39.72,39.72,0,0,0-34.13-37.62V248.78a22,22,0,0,1,17.07,20,8.53,8.53,0,1,0,17.07,0,39.72,39.72,0,0,0-34.13-37.62v-.78a8.53,8.53,0,1,0-17.07,0ZM230.4,268.8a22,22,0,0,1,17.07-20v40A22,22,0,0,1,230.4,268.8Zm51.2,59.73a22,22,0,0,1-17.07,20v-40A22,22,0,0,1,281.6,328.53Z"/></g></g></svg>