<svg id="Capa_1" data-name="Capa 1" xmlns="http://www.w3.org/2000/svg" viewBox="0 0 512 512"><defs><style>.cls-1{fill:#83b2db;}.cls-2{fill:#e3e7f2;}.cls-3{fill:#fff;}.cls-4{fill:#1a324c;}</style></defs><title>Demo account sign</title><circle class="cls-1" cx="256" cy="256" r="246.15"/><ellipse class="cls-2" cx="256" cy="256" rx="216.61" ry="246.15"/><path class="cls-3" d="M39.38,256c0-135.95,97-246.15,216.62-246.15C120.05,9.85,9.85,120.05,9.85,256S120.05,502.15,256,502.15C136.37,502.15,39.38,391.95,39.38,256Z"/><path class="cls-4" d="M256,512C114.61,512,0,397.39,0,256S114.61,0,256,0,512,114.61,512,256C511.84,397.32,397.32,511.84,256,512Zm0-492.31C125.49,19.69,19.69,125.49,19.69,256S125.49,492.31,256,492.31,492.31,386.51,492.31,256C492.16,125.55,386.45,19.84,256,19.69Z"/><path class="cls-4" d="M181,361.4V150.6h75.31c34.78,0,62,9.68,81.36,29.34C357.32,199.29,367,224.7,367,256.45s-9.68,57.16-29,76.21-46.58,28.73-81.36,28.73Zm37.8-34.18h35.08c52.32,0,75.31-27.52,75.31-70.77,0-44.46-22.68-71.68-75.61-71.68H218.8Z"/></svg>