<svg id="Capa_1" data-name="Capa 1" xmlns="http://www.w3.org/2000/svg" viewBox="0 0 512 512"><defs><style>.cls-1{fill:#1a324c;}</style></defs><title>form</title><path class="cls-1" d="M142.47,383.47h34.27v34.27H142.47Z"/><path class="cls-1" d="M360.43,128.53H455L335.27,8.79v94.58A25.2,25.2,0,0,0,360.43,128.53Z"/><path class="cls-1" d="M142.47,254.93h34.27V289.2H142.47Z"/><path class="cls-1" d="M360.43,158.53a55.23,55.23,0,0,1-55.17-55.17V0H103.37A55.23,55.23,0,0,0,48.2,55.17V456.83A55.23,55.23,0,0,0,103.37,512H408.63a55.23,55.23,0,0,0,55.17-55.17V158.53Zm-40.17,66.4a15,15,0,1,1,0,30H256a15,15,0,0,1,0-30ZM127.47,80.33H207.8a15,15,0,1,1,0,30H127.47a15,15,0,1,1,0-30Zm0,64.27H256a15,15,0,0,1,0,30H127.47a15,15,0,0,1,0-30Zm79.27,288.13a15,15,0,0,1-15,15H127.47a15,15,0,0,1-15-15V368.47a15,15,0,0,1,15-15h64.27a15,15,0,0,1,15,15Zm0-128.53a15,15,0,0,1-15,15H127.47a15,15,0,0,1-15-15V239.93a15,15,0,0,1,15-15h64.27a15,15,0,0,1,15,15Zm177.8,143.53H256a15,15,0,0,1,0-30H384.53a15,15,0,0,1,0,30ZM241,368.47a15,15,0,0,1,15-15h64.27a15,15,0,1,1,0,30H256a15,15,0,0,1-15-15ZM384.53,319.2H256a15,15,0,0,1,0-30H384.53a15,15,0,0,1,0,30Z"/></svg>