<svg id="Capa_1" data-name="Capa 1" xmlns="http://www.w3.org/2000/svg" viewBox="0 0 512 512"><defs><style>.cls-1{fill:#e3e7f2;}.cls-2{fill:#3db2a3;}</style></defs><title>icon 3</title><polygon class="cls-1" points="172.88 298 187.38 281 289.38 341 439.88 139.5 446.88 141 446.88 446.63 79.38 446.63 57.38 437.5 130.88 347 172.88 298"/><path class="cls-2" d="M47.87,453.61a9,9,0,0,1-9-9V67.37a9,9,0,1,1,18,0V444.63a9,9,0,0,1-9,9Z"/><path class="cls-2" d="M53.88,443a9,9,0,0,1-1.28-12.64l128-157a9,9,0,1,1,13.92,11.36l-128,157A9,9,0,0,1,53.88,443Z"/><path class="cls-2" d="M282.73,349.13a9,9,0,0,1-1.28-12.64L430.87,134.65A9,9,0,1,1,444.79,146L295.37,347.85a9,9,0,0,1-12.64,1.28Z"/><path class="cls-2" d="M473.11,444.63a9,9,0,0,1-9,9H47.87a9,9,0,1,1,0-18H464.13a9,9,0,0,1,9,9Z"/><path class="cls-2" d="M292.82,349a9,9,0,0,0,1.43-12.62l-98.7-63c-5.95-3.47-8.74-4.52-12.62-1.43a9,9,0,0,0-1.43,12.62l6.88,4.32c1.48,1.86,95.47,61.73,97.84,62A9,9,0,0,0,292.82,349Z"/></svg>