<svg id="Capa_1" data-name="Capa 1" xmlns="http://www.w3.org/2000/svg" xmlns:xlink="http://www.w3.org/1999/xlink" viewBox="0 0 469.3 469.3"><defs><style>.cls-1{fill:none;}.cls-2{clip-path:url(#clip-path);}.cls-3{fill:url(#Adsız_degrade);}.cls-4{fill:url(#Adsız_degrade_2);}.cls-5{fill:#87e8d8;}.cls-6{fill:#fff;}.cls-7{fill:#3db2a3;}</style><clipPath id="clip-path"><rect class="cls-1" x="32.7" y="58" width="406" height="265.3"/></clipPath><linearGradient id="Adsız_degrade" x1="-1165.76" y1="-6.69" x2="-1164.49" y2="-5.86" gradientTransform="translate(254393.91 2302.93) scale(218.23 335.74)" gradientUnits="userSpaceOnUse"><stop offset="0" stop-color="#d4e1f4"/><stop offset="0.17" stop-color="#d4e1f4"/><stop offset="0.2" stop-color="#d4e1f4"/><stop offset="0.2" stop-color="#dae4f4"/><stop offset="0.2" stop-color="#ebebf4"/><stop offset="0.2" stop-color="#f6f1f4"/><stop offset="0.2" stop-color="#fdf4f4"/><stop offset="0.2" stop-color="#fff5f4"/><stop offset="0.25" stop-color="#fff5f4"/><stop offset="0.26" stop-color="#fff5f4"/><stop offset="0.26" stop-color="#d4e1f4"/><stop offset="0.4" stop-color="#d4e1f4"/><stop offset="0.42" stop-color="#d4e1f4"/><stop offset="0.42" stop-color="#dae4f4"/><stop offset="0.42" stop-color="#ebebf4"/><stop offset="0.42" stop-color="#f6f1f4"/><stop offset="0.42" stop-color="#fdf4f4"/><stop offset="0.42" stop-color="#fff5f4"/><stop offset="0.49" stop-color="#fff5f4"/><stop offset="0.5" stop-color="#fff5f4"/><stop offset="0.5" stop-color="#f9f2f4"/><stop offset="0.5" stop-color="#e8ebf4"/><stop offset="0.5" stop-color="#dde5f4"/><stop offset="0.5" stop-color="#d6e2f4"/><stop offset="0.5" stop-color="#d4e1f4"/><stop offset="0.71" stop-color="#d4e1f4"/><stop offset="0.74" stop-color="#d4e1f4"/><stop offset="0.74" stop-color="#fff5f4"/><stop offset="0.83" stop-color="#fff5f4"/><stop offset="0.85" stop-color="#fff5f4"/><stop offset="0.85" stop-color="#d4e1f4"/></linearGradient><linearGradient id="Adsız_degrade_2" x1="-1168.91" y1="-7.8" x2="-1167.64" y2="-6.98" gradientTransform="translate(-254606.29 -2247.68) rotate(180) scale(218.23 335.74)" xlink:href="#Adsız_degrade"/></defs><title>monitor</title><g class="cls-2"><rect class="cls-3" x="19.7" y="27.8" width="218.2" height="335.7"/></g><g class="cls-2"><rect class="cls-4" x="237.4" y="65.6" width="218.2" height="335.7"/></g><rect class="cls-5" x="407" y="59" width="47" height="254"/><rect class="cls-6" x="13" y="59" width="47" height="254"/><path class="cls-7" d="M426.7,21.3H42.7A42.68,42.68,0,0,0,0,64V320a42.68,42.68,0,0,0,42.7,42.7H192l-42.7,64V448H320V426.7l-42.7-64H426.6A42.68,42.68,0,0,0,469.3,320V64A42.66,42.66,0,0,0,426.7,21.3Zm0,277H42.7V72h384Z"/></svg>