<svg id="Capa_1" data-name="Capa 1" xmlns="http://www.w3.org/2000/svg" viewBox="0 0 442 442"><defs><style>.cls-1{fill:#38b2a3;}</style></defs><title>nakit</title><path class="cls-1" d="M337.9,189.48c0-.08,0-.16,0-.25a9.86,9.86,0,0,0-.24-1.21h0a10,10,0,0,0-.38-1.1l-.13-.31c-.12-.26-.24-.52-.39-.77l-.19-.33-.1-.18c-.15-.24-.31-.46-.47-.68l-.09-.12a9.72,9.72,0,0,0-.8-.91l-.17-.16a10.08,10.08,0,0,0-.77-.67l-.2-.16a10.14,10.14,0,0,0-1.11-.72L185.51,98.16l84.82-53.41,142.21,80.83-59.89,37.71a10,10,0,1,0,10.66,16.92l74-46.61a10,10,0,0,0-.39-17.16L275,24.4a10,10,0,0,0-10.27.23l-104,65.46-.06,0-51.95,32.71-.07,0L4.67,188.4a10,10,0,0,0,.39,17.16L167,297.6a10,10,0,0,0,10.27-.23l74-46.61a10,10,0,1,0-10.66-16.92l-69,43.42L29.47,196.42,114.29,143,266,229.22V343.4a10,10,0,0,0,15.33,8.46l52-32.75a10,10,0,0,0,4.67-8.46v-120c0-.06,0-.12,0-.17Q338,190,337.9,189.48ZM286,325.29V223.4a10,10,0,0,0-5.06-8.69L133.49,130.92l32.81-20.66,142.21,80.83-12.45,7.84a10,10,0,1,0,10.66,16.92L318,208.76v96.37Z"/><path class="cls-1" d="M426.67,156.68l-74,46.61a10,10,0,1,0,10.66,16.92l74-46.61a10,10,0,0,0-10.66-16.92Z"/><path class="cls-1" d="M240.63,273.83l-69,43.42L14.94,228.17a10,10,0,1,0-9.88,17.39L167,337.6a10,10,0,0,0,10.27-.23l74-46.61a10,10,0,0,0-10.66-16.93Z"/><path class="cls-1" d="M426.67,196.68l-74,46.61a10,10,0,1,0,10.66,16.92l74-46.61a10,10,0,0,0-10.66-16.92Z"/><path class="cls-1" d="M240.63,313.83l-69,43.42L14.94,268.17a10,10,0,0,0-9.88,17.39L167,377.6a10,10,0,0,0,10.27-.23l74-46.61a10,10,0,0,0-10.66-16.93Z"/><path class="cls-1" d="M426.67,236.68l-74,46.61a10,10,0,1,0,10.66,16.92l74-46.61a10,10,0,0,0-10.66-16.92Z"/><path class="cls-1" d="M240.63,353.83l-69,43.42L14.94,308.17a10,10,0,0,0-9.88,17.39L167,417.6a10,10,0,0,0,10.27-.23l74-46.61a10,10,0,0,0-10.66-16.93Z"/></svg>