<svg id="katman_1" data-name="katman 1" xmlns="http://www.w3.org/2000/svg" xmlns:xlink="http://www.w3.org/1999/xlink" viewBox="0 0 512 512"><defs><style>.cls-1{fill:url(#Adsız_degrade);}.cls-2{fill:#1a324c;}.cls-3{fill:#3db2a3;}.cls-4{fill:#112333;}</style><linearGradient id="Adsız_degrade" x1="48.69" y1="74.69" x2="415.31" y2="441.31" gradientTransform="matrix(1, 0, 0, -1, 0, 514)" gradientUnits="userSpaceOnUse"><stop offset="0" stop-color="#e3dede"/><stop offset="1" stop-color="#fff"/></linearGradient></defs><title>PAY-havale</title><g id="_01-credit_card" data-name=" 01-credit card"><g id="outline"><rect class="cls-1" x="96" y="16" width="272" height="480" rx="16" ry="16"/><path class="cls-2" d="M352,16H112A16,16,0,0,0,96,32V72H368V32A16,16,0,0,0,352,16Z"/><path class="cls-2" d="M96,480a16,16,0,0,0,16,16H352a16,16,0,0,0,16-16V416H96Z"/><path class="cls-3" d="M32,128H257V352H32a16,16,0,0,1-16-16V144A16,16,0,0,1,32,128Z"/><path class="cls-2" d="M16,168H257v33H16Z"/><path class="cls-2" d="M48,240H162v32H48Z"/><path class="cls-4" d="M368,382a10,10,0,0,0-10,10v14H106V362H247v6a10,10,0,0,0,20,0V112a10,10,0,0,0-20,0v6H106V82H358v5a10,10,0,0,0,20,0V32A26,26,0,0,0,352,6H112A26,26,0,0,0,86,32v86H32A26,26,0,0,0,6,144V336a26,26,0,0,0,26,26H86V480a26,26,0,0,0,26,26H352a26,26,0,0,0,26-26V392A10,10,0,0,0,368,382ZM106,32a6,6,0,0,1,6-6H352a6,6,0,0,1,6,6V62H106ZM26,178H247v13H26Zm6-40H247v20H26V144A6,6,0,0,1,32,138ZM26,336V211H247V342H32A6,6,0,0,1,26,336ZM358,480a6,6,0,0,1-6,6H112a6,6,0,0,1-6-6V426H358Z"/><path class="cls-4" d="M207.09,466h51a10,10,0,0,0,0-20h-51a10,10,0,1,0,0,20Z"/><path class="cls-4" d="M48,282H162a10,10,0,0,0,10-10V240a10,10,0,0,0-10-10H48a10,10,0,0,0-10,10v32A10,10,0,0,0,48,282Zm10-32h94v12H58Z"/><path class="cls-4" d="M140,311a10,10,0,0,0-10-10H49a10,10,0,0,0,0,20h81A10,10,0,0,0,140,311Z"/><path class="cls-4" d="M352.85,314.41a10,10,0,0,0,10-10v-6.06a34,34,0,0,0,32-33.94v-1a34,34,0,0,0-34-34h-17a14,14,0,0,1,0-28h24.81a5.51,5.51,0,0,1,5.51,5.51q0,.12,0,.23a10,10,0,1,0,20,1V208a25.51,25.51,0,0,0-24.39-26.58l-1.1,0h-5.81v-6a10,10,0,1,0-20,0v6a34,34,0,0,0,1,68h17a14,14,0,0,1,14,14v1a14,14,0,0,1-14,14H335.63a5.51,5.51,0,0,1-5.51-5.51s0-.06,0-.09l0-1a10,10,0,1,0-20-.37l0,1a25.51,25.51,0,0,0,25,26h7.67v6a10,10,0,0,0,10,10h0Z"/><path class="cls-4" d="M441.18,118.76H369.33a10,10,0,0,0,0,20h71.86l-14.93,14.93a10,10,0,0,0,14.14,14.14l32-32a10,10,0,0,0,0-14.14h0l-32-32a10,10,0,0,0-14.14,14.14Z"/><path class="cls-4" d="M329.33,138.76a10,10,0,1,0,0-20h-8a10,10,0,0,0,0,20Z"/><path class="cls-4" d="M440.07,312.93a10,10,0,0,0-14.14,14.14L440.86,342H369a10,10,0,0,0,0,20h71.86l-14.93,14.93A10,10,0,1,0,440,391.13l.06-.06,32-32a10,10,0,0,0,0-14.14Z"/><path class="cls-4" d="M321,342a10,10,0,0,0,0,20h8a10,10,0,0,0,0-20Z"/></g></g></svg>