<svg id="Capa_1" data-name="Capa 1" xmlns="http://www.w3.org/2000/svg" viewBox="0 0 512 512"><defs><style>.cls-1{fill:#1a324c;}</style></defs><title>qr code</title><path class="cls-1" d="M0,0V170H170V0ZM130,130H40V40h90Z"/><rect class="cls-1" x="65" y="65" width="40" height="40"/><path class="cls-1" d="M342,0V170H512V0ZM472,130H382V40h90Z"/><rect class="cls-1" x="407" y="65" width="40" height="40"/><path class="cls-1" d="M0,342V512H170V342ZM130,472H40V382h90Z"/><rect class="cls-1" x="65" y="407" width="40" height="40"/><rect class="cls-1" x="40" y="197" width="40" height="40"/><polygon class="cls-1" points="120 277 120 237 80 237 80 277 119 277 119 317 159 317 159 277 120 277"/><rect class="cls-1" x="280" y="77" width="40" height="40"/><rect class="cls-1" x="200" y="40" width="40" height="77"/><rect class="cls-1" x="240" width="40" height="40"/><polygon class="cls-1" points="240 117 240 157 200 157 200 197 280 197 280 117 240 117"/><polygon class="cls-1" points="280 355 280 316 240 316 240 237 200 237 200 317 240 317 240 356 280 356 280 395 360 395 360 355 280 355"/><rect class="cls-1" x="280" y="197" width="40" height="80"/><path class="cls-1" d="M472,236V197H399v40H360v40h40v39H512V236Zm0,40H400V237h72Z"/><rect class="cls-1" x="472" y="355" width="40" height="80"/><rect class="cls-1" x="320" y="277" width="40" height="40"/><rect class="cls-1" x="360" y="395" width="40" height="40"/><rect class="cls-1" x="400" y="355" width="40" height="40"/><polygon class="cls-1" points="400 435 400 512 440 512 440 475 472 475 472 435 400 435"/><rect class="cls-1" x="200" y="356" width="40" height="76"/><polygon class="cls-1" points="320 472 320 432 240 432 240 512 280 512 280 472 319 472 319 512 359 512 359 472 320 472"/><rect class="cls-1" x="120" y="197" width="80" height="40"/><rect class="cls-1" y="237" width="40" height="80"/></svg>