<svg id="Capa_1" data-name="Capa 1" xmlns="http://www.w3.org/2000/svg" viewBox="0 0 512 512"><defs><style>.cls-1{fill:#87e8d8;}.cls-2{fill:#e3e7f2;}.cls-3{fill:#fff;}.cls-4{fill:#3db2a3;}</style></defs><title>webtrader</title><circle class="cls-1" cx="256" cy="256" r="247.17"/><ellipse class="cls-2" cx="242.76" cy="256" rx="233.93" ry="247.17"/><path class="cls-3" d="M256,503.17c4.44,0,8.86-.13,13.24-.36C138.07,495.78,35.31,387.36,35.31,256S138.07,16.22,269.24,9.19c-4.39-.23-8.8-.36-13.24-.36C119.49,8.83,8.83,119.49,8.83,256S119.49,503.17,256,503.17Z"/><path class="cls-4" d="M256,512C114.61,512,0,397.39,0,256S114.61,0,256,0,512,114.61,512,256C511.84,397.32,397.32,511.84,256,512Zm0-494.34C124.37,17.66,17.66,124.37,17.66,256S124.37,494.35,256,494.35,494.35,387.63,494.35,256,387.57,17.81,256,17.66Z"/><path class="cls-4" d="M256,512a8.82,8.82,0,0,1-8.83-8.83V8.83a8.83,8.83,0,0,1,17.66,0V503.17A8.82,8.82,0,0,1,256,512Z"/><path class="cls-4" d="M256,512c-1.3,0-2.59,0-3.88-.09l-2-.06a8.84,8.84,0,0,1-5.35-2,326.48,326.48,0,0,1,0-507.78,8.84,8.84,0,0,1,5.35-2l2-.06C253.41,0,254.7,0,256,0a8.83,8.83,0,1,1,0,17.66c-.79,0-1.58,0-2.36,0a308.82,308.82,0,0,0,0,476.6c.79,0,1.57,0,2.36,0A8.83,8.83,0,1,1,256,512Z"/><path class="cls-4" d="M256,150.07A324.86,324.86,0,0,1,71.8,93.16a8.83,8.83,0,1,1,10-14.57A307.27,307.27,0,0,0,256,132.41,307.27,307.27,0,0,0,430.23,78.6a8.83,8.83,0,0,1,10,14.57A324.86,324.86,0,0,1,256,150.07Z"/><path class="cls-4" d="M440.15,429.64A8.81,8.81,0,0,1,435,428,308.6,308.6,0,0,0,77,428a8.83,8.83,0,1,1-10.24-14.38,326.25,326.25,0,0,1,378.55,0,8.83,8.83,0,0,1-5.13,16Z"/><path class="cls-4" d="M256,512a8.83,8.83,0,0,1,0-17.66c.79,0,1.58,0,2.36,0a308.82,308.82,0,0,0,0-476.6c-.79,0-1.57,0-2.36,0A8.83,8.83,0,1,1,256,0c1.3,0,2.59,0,3.88.09l2,.06a8.84,8.84,0,0,1,5.35,2,326.48,326.48,0,0,1,0,507.78,8.84,8.84,0,0,1-5.35,2l-2,.06C258.59,512,257.3,512,256,512Z"/><path class="cls-4" d="M503.17,264.83H8.83a8.83,8.83,0,0,1,0-17.66H503.17a8.83,8.83,0,1,1,0,17.66Z"/></svg>